<svg width="310" height="95" viewBox="0 0 310 95" fill="none" xmlns="http://www.w3.org/2000/svg">
<g filter="url(#filter0_b_4601_384)">
<rect width="310" height="95" fill="black" fill-opacity="0.32"/>
<rect x="0.5" y="0.5" width="309" height="94" stroke="#B8B8B8"/>
</g>
<path d="M36.212 44C35.936 44 35.708 43.916 35.528 43.748C35.348 43.568 35.258 43.346 35.258 43.082V33.434L35.492 33.758L33.818 34.928C33.674 35.048 33.5 35.108 33.296 35.108C33.056 35.108 32.84 35.018 32.648 34.838C32.468 34.646 32.378 34.424 32.378 34.172C32.378 33.86 32.534 33.602 32.846 33.398L35.582 31.58C35.69 31.508 35.804 31.46 35.924 31.436C36.056 31.412 36.176 31.4 36.284 31.4C36.56 31.4 36.782 31.49 36.95 31.67C37.118 31.838 37.202 32.054 37.202 32.318V43.082C37.202 43.346 37.106 43.568 36.914 43.748C36.734 43.916 36.5 44 36.212 44ZM44.0386 44.18C43.3666 44.18 42.7666 44.048 42.2386 43.784C41.7226 43.52 41.2846 43.16 40.9246 42.704C40.5766 42.248 40.3066 41.738 40.1146 41.174C39.9346 40.598 39.8446 40.01 39.8446 39.41C39.8446 38.942 39.8986 38.408 40.0066 37.808C40.1146 37.196 40.2946 36.566 40.5466 35.918C40.7986 35.258 41.1286 34.628 41.5366 34.028C41.9566 33.428 42.4726 32.888 43.0846 32.408C43.7086 31.916 44.4466 31.544 45.2986 31.292C45.4186 31.256 45.5326 31.238 45.6406 31.238C45.8806 31.238 46.0906 31.304 46.2706 31.436C46.4626 31.556 46.5586 31.778 46.5586 32.102C46.5586 32.318 46.4866 32.51 46.3426 32.678C46.1986 32.834 46.0066 32.948 45.7666 33.02C45.3346 33.164 44.9026 33.38 44.4706 33.668C44.0386 33.956 43.6366 34.298 43.2646 34.694C42.8926 35.09 42.5746 35.534 42.3106 36.026C42.0586 36.506 41.8726 37.01 41.7526 37.538L41.3026 37.61C41.4826 37.334 41.7106 37.07 41.9866 36.818C42.2746 36.554 42.6106 36.338 42.9946 36.17C43.3786 35.99 43.8166 35.9 44.3086 35.9C44.8006 35.9 45.2746 36.008 45.7306 36.224C46.1866 36.44 46.5946 36.74 46.9546 37.124C47.3266 37.508 47.6146 37.952 47.8186 38.456C48.0346 38.96 48.1426 39.494 48.1426 40.058C48.1426 40.802 47.9566 41.492 47.5846 42.128C47.2246 42.752 46.7326 43.25 46.1086 43.622C45.4966 43.994 44.8066 44.18 44.0386 44.18ZM44.0206 42.506C44.4646 42.506 44.8606 42.404 45.2086 42.2C45.5566 41.984 45.8326 41.69 46.0366 41.318C46.2406 40.946 46.3426 40.526 46.3426 40.058C46.3426 39.59 46.2466 39.17 46.0546 38.798C45.8626 38.426 45.5926 38.126 45.2446 37.898C44.9086 37.67 44.5126 37.556 44.0566 37.556C43.5886 37.556 43.1746 37.67 42.8146 37.898C42.4546 38.126 42.1726 38.432 41.9686 38.816C41.7646 39.188 41.6626 39.608 41.6626 40.076C41.6626 40.508 41.7646 40.916 41.9686 41.3C42.1726 41.672 42.4486 41.966 42.7966 42.182C43.1566 42.398 43.5646 42.506 44.0206 42.506ZM54.782 34.37C55.61 34.37 56.252 34.55 56.708 34.91C57.164 35.258 57.482 35.732 57.662 36.332C57.854 36.932 57.95 37.592 57.95 38.312V43.082C57.95 43.346 57.86 43.568 57.68 43.748C57.512 43.916 57.302 44 57.05 44C56.786 44 56.57 43.916 56.402 43.748C56.234 43.568 56.15 43.346 56.15 43.082V38.312C56.15 37.892 56.09 37.508 55.97 37.16C55.862 36.812 55.664 36.536 55.376 36.332C55.1 36.128 54.71 36.026 54.206 36.026C53.738 36.026 53.318 36.128 52.946 36.332C52.586 36.536 52.304 36.812 52.1 37.16C51.908 37.508 51.812 37.892 51.812 38.312V43.082C51.812 43.346 51.722 43.568 51.542 43.748C51.374 43.916 51.164 44 50.912 44C50.648 44 50.432 43.916 50.264 43.748C50.096 43.568 50.012 43.346 50.012 43.082V31.598C50.012 31.334 50.096 31.118 50.264 30.95C50.432 30.77 50.648 30.68 50.912 30.68C51.164 30.68 51.374 30.77 51.542 30.95C51.722 31.118 51.812 31.334 51.812 31.598V36.512L51.488 36.692C51.572 36.428 51.71 36.158 51.902 35.882C52.106 35.606 52.352 35.354 52.64 35.126C52.94 34.898 53.27 34.718 53.63 34.586C53.99 34.442 54.374 34.37 54.782 34.37ZM66.3091 36.8C66.0091 36.8 65.7751 36.722 65.6071 36.566C65.4511 36.398 65.3731 36.164 65.3731 35.864V35.522C65.3731 35.222 65.4511 34.988 65.6071 34.82C65.7751 34.652 66.0091 34.568 66.3091 34.568H66.5071C66.8071 34.568 67.0351 34.652 67.1911 34.82C67.3471 34.988 67.4251 35.222 67.4251 35.522V35.864C67.4251 36.164 67.3471 36.398 67.1911 36.566C67.0351 36.722 66.8071 36.8 66.5071 36.8H66.3091ZM66.3091 44C66.0091 44 65.7751 43.916 65.6071 43.748C65.4511 43.58 65.3731 43.346 65.3731 43.046V42.722C65.3731 42.41 65.4511 42.176 65.6071 42.02C65.7751 41.852 66.0091 41.768 66.3091 41.768H66.5071C66.8071 41.768 67.0351 41.852 67.1911 42.02C67.3471 42.176 67.4251 42.41 67.4251 42.722V43.046C67.4251 43.346 67.3471 43.58 67.1911 43.748C67.0351 43.916 66.8071 44 66.5071 44H66.3091ZM81.9414 42.326C82.1814 42.326 82.3794 42.41 82.5354 42.578C82.7034 42.734 82.7874 42.932 82.7874 43.172C82.7874 43.412 82.7034 43.61 82.5354 43.766C82.3794 43.922 82.1814 44 81.9414 44H75.6234C75.3594 44 75.1494 43.922 74.9934 43.766C74.8374 43.61 74.7594 43.4 74.7594 43.136C74.7594 42.896 74.8434 42.68 75.0114 42.488L79.0254 38.15C79.5414 37.598 79.9374 37.052 80.2134 36.512C80.5014 35.972 80.6454 35.498 80.6454 35.09C80.6454 34.43 80.4474 33.896 80.0514 33.488C79.6554 33.08 79.1334 32.876 78.4854 32.876C78.2094 32.876 77.9274 32.942 77.6394 33.074C77.3634 33.194 77.0994 33.362 76.8474 33.578C76.6074 33.782 76.3974 34.022 76.2174 34.298C76.0974 34.466 75.9774 34.574 75.8574 34.622C75.7374 34.67 75.6234 34.694 75.5154 34.694C75.2874 34.694 75.0774 34.616 74.8854 34.46C74.7054 34.292 74.6154 34.1 74.6154 33.884C74.6154 33.716 74.6694 33.554 74.7774 33.398C74.8854 33.242 75.0234 33.08 75.1914 32.912C75.4554 32.588 75.7734 32.3 76.1454 32.048C76.5294 31.784 76.9314 31.58 77.3514 31.436C77.7714 31.292 78.1854 31.22 78.5934 31.22C79.3854 31.22 80.0694 31.376 80.6454 31.688C81.2334 32 81.6834 32.438 81.9954 33.002C82.3194 33.566 82.4814 34.232 82.4814 35C82.4814 35.648 82.2834 36.368 81.8874 37.16C81.5034 37.94 80.9634 38.708 80.2674 39.464L77.4774 42.506L77.2794 42.326H81.9414ZM88.0696 44.126C87.6016 44.126 87.1156 44.054 86.6116 43.91C86.1196 43.766 85.6996 43.55 85.3516 43.262C85.2196 43.154 85.1176 43.016 85.0456 42.848C84.9736 42.68 84.9376 42.518 84.9376 42.362C84.9376 42.194 85.0096 42.032 85.1536 41.876C85.3096 41.708 85.5196 41.624 85.7836 41.624C85.9756 41.624 86.1976 41.72 86.4496 41.912C86.6896 42.068 86.9416 42.2 87.2056 42.308C87.4816 42.416 87.7636 42.47 88.0516 42.47C88.6756 42.47 89.2156 42.356 89.6716 42.128C90.1276 41.9 90.4756 41.582 90.7156 41.174C90.9676 40.754 91.0936 40.268 91.0936 39.716C91.0936 39.2 90.9796 38.762 90.7516 38.402C90.5236 38.03 90.2116 37.742 89.8156 37.538C89.4316 37.334 88.9996 37.232 88.5196 37.232C88.1236 37.232 87.7756 37.298 87.4756 37.43C87.1756 37.55 86.9056 37.676 86.6656 37.808C86.4256 37.928 86.2036 37.988 85.9996 37.988C85.6876 37.988 85.4536 37.922 85.2976 37.79C85.1416 37.646 85.0396 37.478 84.9916 37.286C84.9556 37.082 84.9496 36.896 84.9736 36.728L85.6036 32.21C85.6396 32.006 85.7356 31.838 85.8916 31.706C86.0596 31.562 86.2636 31.49 86.5036 31.49H91.7776C92.0176 31.49 92.2156 31.574 92.3716 31.742C92.5396 31.898 92.6236 32.096 92.6236 32.336C92.6236 32.576 92.5396 32.774 92.3716 32.93C92.2156 33.086 92.0176 33.164 91.7776 33.164H86.9536L87.1516 33.002L86.5756 36.872L86.3056 36.332C86.4136 36.212 86.5936 36.098 86.8456 35.99C87.1096 35.87 87.4036 35.774 87.7276 35.702C88.0636 35.618 88.3996 35.576 88.7356 35.576C89.5276 35.576 90.2356 35.756 90.8596 36.116C91.4956 36.464 91.9936 36.95 92.3536 37.574C92.7136 38.198 92.8936 38.906 92.8936 39.698C92.8936 40.586 92.6956 41.366 92.2996 42.038C91.9036 42.698 91.3456 43.214 90.6256 43.586C89.9056 43.946 89.0536 44.126 88.0696 44.126ZM99.9749 34.37C100.863 34.37 101.547 34.592 102.027 35.036C102.507 35.468 102.825 36.056 102.981 36.8L102.693 36.71L102.819 36.422C102.975 36.11 103.209 35.798 103.521 35.486C103.845 35.162 104.229 34.898 104.673 34.694C105.117 34.478 105.591 34.37 106.095 34.37C106.923 34.37 107.565 34.55 108.021 34.91C108.477 35.258 108.795 35.732 108.975 36.332C109.155 36.92 109.245 37.58 109.245 38.312V43.082C109.245 43.346 109.161 43.568 108.993 43.748C108.825 43.916 108.609 44 108.345 44C108.093 44 107.877 43.916 107.697 43.748C107.529 43.568 107.445 43.346 107.445 43.082V38.33C107.445 37.91 107.385 37.526 107.265 37.178C107.157 36.83 106.959 36.554 106.671 36.35C106.395 36.134 106.011 36.026 105.519 36.026C105.051 36.026 104.631 36.134 104.259 36.35C103.899 36.554 103.617 36.83 103.413 37.178C103.209 37.526 103.107 37.91 103.107 38.33V43.082C103.107 43.346 103.023 43.568 102.855 43.748C102.687 43.916 102.471 44 102.207 44C101.943 44 101.727 43.916 101.559 43.748C101.391 43.568 101.307 43.346 101.307 43.082V38.312C101.307 37.892 101.247 37.508 101.127 37.16C101.019 36.812 100.827 36.536 100.551 36.332C100.275 36.128 99.8909 36.026 99.3989 36.026C98.9309 36.026 98.5169 36.128 98.1569 36.332C97.7969 36.536 97.5149 36.812 97.3109 37.16C97.1189 37.508 97.0229 37.892 97.0229 38.312V43.082C97.0229 43.346 96.9329 43.568 96.7529 43.748C96.5849 43.916 96.3749 44 96.1229 44C95.8589 44 95.6429 43.916 95.4749 43.748C95.3069 43.568 95.2229 43.346 95.2229 43.082V35.45C95.2229 35.186 95.3069 34.97 95.4749 34.802C95.6429 34.622 95.8589 34.532 96.1229 34.532C96.3749 34.532 96.5849 34.622 96.7529 34.802C96.9329 34.97 97.0229 35.186 97.0229 35.45V36.512L96.6809 36.71C96.7649 36.446 96.9029 36.176 97.0949 35.9C97.2869 35.624 97.5269 35.372 97.8149 35.144C98.1149 34.916 98.4449 34.73 98.8049 34.586C99.1649 34.442 99.5549 34.37 99.9749 34.37ZM117.62 36.8C117.32 36.8 117.086 36.722 116.918 36.566C116.762 36.398 116.684 36.164 116.684 35.864V35.522C116.684 35.222 116.762 34.988 116.918 34.82C117.086 34.652 117.32 34.568 117.62 34.568H117.818C118.118 34.568 118.346 34.652 118.502 34.82C118.658 34.988 118.736 35.222 118.736 35.522V35.864C118.736 36.164 118.658 36.398 118.502 36.566C118.346 36.722 118.118 36.8 117.818 36.8H117.62ZM117.62 44C117.32 44 117.086 43.916 116.918 43.748C116.762 43.58 116.684 43.346 116.684 43.046V42.722C116.684 42.41 116.762 42.176 116.918 42.02C117.086 41.852 117.32 41.768 117.62 41.768H117.818C118.118 41.768 118.346 41.852 118.502 42.02C118.658 42.176 118.736 42.41 118.736 42.722V43.046C118.736 43.346 118.658 43.58 118.502 43.748C118.346 43.916 118.118 44 117.818 44H117.62ZM131.794 44C131.542 44 131.332 43.916 131.164 43.748C130.996 43.568 130.912 43.346 130.912 43.082V33.92L131.236 34.028L127.348 38.996L127.258 38.762H133.81C134.05 38.762 134.248 38.846 134.404 39.014C134.572 39.17 134.656 39.368 134.656 39.608C134.656 39.836 134.572 40.028 134.404 40.184C134.248 40.34 134.05 40.418 133.81 40.418H126.016C125.8 40.418 125.596 40.334 125.404 40.166C125.212 39.986 125.116 39.776 125.116 39.536C125.116 39.308 125.194 39.104 125.35 38.924L131.074 31.76C131.158 31.64 131.266 31.55 131.398 31.49C131.53 31.43 131.668 31.4 131.812 31.4C132.076 31.4 132.292 31.49 132.46 31.67C132.628 31.838 132.712 32.054 132.712 32.318V43.082C132.712 43.346 132.622 43.568 132.442 43.748C132.262 43.916 132.046 44 131.794 44ZM143.482 42.326C143.722 42.326 143.92 42.41 144.076 42.578C144.244 42.734 144.328 42.932 144.328 43.172C144.328 43.412 144.244 43.61 144.076 43.766C143.92 43.922 143.722 44 143.482 44H137.164C136.9 44 136.69 43.922 136.534 43.766C136.378 43.61 136.3 43.4 136.3 43.136C136.3 42.896 136.384 42.68 136.552 42.488L140.566 38.15C141.082 37.598 141.478 37.052 141.754 36.512C142.042 35.972 142.186 35.498 142.186 35.09C142.186 34.43 141.988 33.896 141.592 33.488C141.196 33.08 140.674 32.876 140.026 32.876C139.75 32.876 139.468 32.942 139.18 33.074C138.904 33.194 138.64 33.362 138.388 33.578C138.148 33.782 137.938 34.022 137.758 34.298C137.638 34.466 137.518 34.574 137.398 34.622C137.278 34.67 137.164 34.694 137.056 34.694C136.828 34.694 136.618 34.616 136.426 34.46C136.246 34.292 136.156 34.1 136.156 33.884C136.156 33.716 136.21 33.554 136.318 33.398C136.426 33.242 136.564 33.08 136.732 32.912C136.996 32.588 137.314 32.3 137.686 32.048C138.07 31.784 138.472 31.58 138.892 31.436C139.312 31.292 139.726 31.22 140.134 31.22C140.926 31.22 141.61 31.376 142.186 31.688C142.774 32 143.224 32.438 143.536 33.002C143.86 33.566 144.022 34.232 144.022 35C144.022 35.648 143.824 36.368 143.428 37.16C143.044 37.94 142.504 38.708 141.808 39.464L139.018 42.506L138.82 42.326H143.482ZM146.011 42.524C145.903 42.356 145.855 42.164 145.867 41.948C145.879 41.72 146.005 41.528 146.245 41.372C146.413 41.264 146.587 41.222 146.767 41.246C146.959 41.258 147.139 41.348 147.307 41.516C147.643 41.888 148.015 42.182 148.423 42.398C148.843 42.614 149.347 42.722 149.935 42.722C150.175 42.71 150.421 42.674 150.673 42.614C150.925 42.542 151.141 42.422 151.321 42.254C151.501 42.074 151.591 41.816 151.591 41.48C151.591 41.18 151.495 40.94 151.303 40.76C151.111 40.58 150.859 40.436 150.547 40.328C150.235 40.208 149.899 40.1 149.539 40.004C149.155 39.896 148.765 39.776 148.369 39.644C147.985 39.512 147.637 39.344 147.325 39.14C147.013 38.924 146.755 38.648 146.551 38.312C146.359 37.976 146.263 37.562 146.263 37.07C146.263 36.506 146.419 36.02 146.731 35.612C147.055 35.204 147.469 34.886 147.973 34.658C148.489 34.43 149.047 34.316 149.647 34.316C149.995 34.316 150.361 34.364 150.745 34.46C151.129 34.544 151.501 34.682 151.861 34.874C152.221 35.066 152.533 35.318 152.797 35.63C152.917 35.786 152.983 35.972 152.995 36.188C153.019 36.404 152.923 36.596 152.707 36.764C152.563 36.884 152.389 36.938 152.185 36.926C151.981 36.914 151.813 36.848 151.681 36.728C151.453 36.44 151.159 36.218 150.799 36.062C150.439 35.894 150.031 35.81 149.575 35.81C149.347 35.81 149.107 35.846 148.855 35.918C148.615 35.978 148.411 36.092 148.243 36.26C148.075 36.428 147.991 36.674 147.991 36.998C147.991 37.298 148.087 37.538 148.279 37.718C148.483 37.898 148.747 38.048 149.071 38.168C149.395 38.288 149.749 38.396 150.133 38.492C150.505 38.588 150.871 38.702 151.231 38.834C151.603 38.966 151.933 39.14 152.221 39.356C152.521 39.56 152.761 39.83 152.941 40.166C153.133 40.49 153.229 40.904 153.229 41.408C153.229 41.996 153.055 42.5 152.707 42.92C152.371 43.328 151.939 43.64 151.411 43.856C150.895 44.072 150.349 44.18 149.773 44.18C149.089 44.18 148.405 44.06 147.721 43.82C147.049 43.568 146.479 43.136 146.011 42.524Z" fill="white"/>
<path d="M200.212 44C199.936 44 199.708 43.916 199.528 43.748C199.348 43.568 199.258 43.346 199.258 43.082V33.434L199.492 33.758L197.818 34.928C197.674 35.048 197.5 35.108 197.296 35.108C197.056 35.108 196.84 35.018 196.648 34.838C196.468 34.646 196.378 34.424 196.378 34.172C196.378 33.86 196.534 33.602 196.846 33.398L199.582 31.58C199.69 31.508 199.804 31.46 199.924 31.436C200.056 31.412 200.176 31.4 200.284 31.4C200.56 31.4 200.782 31.49 200.95 31.67C201.118 31.838 201.202 32.054 201.202 32.318V43.082C201.202 43.346 201.106 43.568 200.914 43.748C200.734 43.916 200.5 44 200.212 44ZM211.225 42.326C211.465 42.326 211.663 42.41 211.819 42.578C211.987 42.734 212.071 42.932 212.071 43.172C212.071 43.412 211.987 43.61 211.819 43.766C211.663 43.922 211.465 44 211.225 44H204.907C204.643 44 204.433 43.922 204.277 43.766C204.121 43.61 204.043 43.4 204.043 43.136C204.043 42.896 204.127 42.68 204.295 42.488L208.309 38.15C208.825 37.598 209.221 37.052 209.497 36.512C209.785 35.972 209.929 35.498 209.929 35.09C209.929 34.43 209.731 33.896 209.335 33.488C208.939 33.08 208.417 32.876 207.769 32.876C207.493 32.876 207.211 32.942 206.923 33.074C206.647 33.194 206.383 33.362 206.131 33.578C205.891 33.782 205.681 34.022 205.501 34.298C205.381 34.466 205.261 34.574 205.141 34.622C205.021 34.67 204.907 34.694 204.799 34.694C204.571 34.694 204.361 34.616 204.169 34.46C203.989 34.292 203.899 34.1 203.899 33.884C203.899 33.716 203.953 33.554 204.061 33.398C204.169 33.242 204.307 33.08 204.475 32.912C204.739 32.588 205.057 32.3 205.429 32.048C205.813 31.784 206.215 31.58 206.635 31.436C207.055 31.292 207.469 31.22 207.877 31.22C208.669 31.22 209.353 31.376 209.929 31.688C210.517 32 210.967 32.438 211.279 33.002C211.603 33.566 211.765 34.232 211.765 35C211.765 35.648 211.567 36.368 211.171 37.16C210.787 37.94 210.247 38.708 209.551 39.464L206.761 42.506L206.563 42.326H211.225ZM214.995 43.982C214.695 43.982 214.461 43.898 214.293 43.73C214.137 43.562 214.059 43.328 214.059 43.028V42.704C214.059 42.404 214.137 42.17 214.293 42.002C214.461 41.834 214.695 41.75 214.995 41.75H215.193C215.493 41.75 215.721 41.834 215.877 42.002C216.033 42.17 216.111 42.404 216.111 42.704V43.028C216.111 43.328 216.033 43.562 215.877 43.73C215.721 43.898 215.493 43.982 215.193 43.982H214.995ZM222.583 44.18C221.575 44.18 220.723 43.904 220.027 43.352C219.331 42.788 218.803 42.02 218.443 41.048C218.095 40.064 217.921 38.948 217.921 37.7C217.921 36.44 218.095 35.324 218.443 34.352C218.803 33.368 219.331 32.6 220.027 32.048C220.723 31.496 221.575 31.22 222.583 31.22C223.591 31.22 224.437 31.496 225.121 32.048C225.817 32.6 226.345 33.368 226.705 34.352C227.065 35.324 227.245 36.44 227.245 37.7C227.245 38.948 227.065 40.064 226.705 41.048C226.345 42.02 225.817 42.788 225.121 43.352C224.437 43.904 223.591 44.18 222.583 44.18ZM222.583 42.362C223.147 42.362 223.627 42.182 224.023 41.822C224.431 41.462 224.743 40.934 224.959 40.238C225.187 39.542 225.301 38.696 225.301 37.7C225.301 36.692 225.187 35.84 224.959 35.144C224.743 34.448 224.431 33.92 224.023 33.56C223.627 33.2 223.147 33.02 222.583 33.02C222.019 33.02 221.533 33.2 221.125 33.56C220.717 33.92 220.405 34.448 220.189 35.144C219.973 35.84 219.865 36.692 219.865 37.7C219.865 38.696 219.973 39.542 220.189 40.238C220.405 40.934 220.717 41.462 221.125 41.822C221.533 42.182 222.019 42.362 222.583 42.362ZM233.121 31.184C233.793 31.184 234.387 31.316 234.903 31.58C235.431 31.844 235.869 32.204 236.217 32.66C236.577 33.104 236.847 33.614 237.027 34.19C237.219 34.754 237.314 35.342 237.314 35.954C237.314 36.422 237.26 36.962 237.152 37.574C237.045 38.174 236.865 38.804 236.613 39.464C236.361 40.124 236.025 40.76 235.605 41.372C235.197 41.984 234.681 42.536 234.057 43.028C233.445 43.508 232.713 43.88 231.861 44.144C231.741 44.168 231.627 44.18 231.519 44.18C231.279 44.18 231.063 44.114 230.871 43.982C230.691 43.85 230.601 43.634 230.601 43.334C230.601 43.106 230.673 42.914 230.817 42.758C230.961 42.602 231.153 42.488 231.393 42.416C231.981 42.2 232.557 41.87 233.121 41.426C233.685 40.97 234.171 40.436 234.579 39.824C234.987 39.2 235.263 38.534 235.407 37.826L235.857 37.754C235.677 38.006 235.449 38.264 235.173 38.528C234.897 38.792 234.567 39.014 234.183 39.194C233.799 39.362 233.355 39.446 232.851 39.446C232.071 39.446 231.393 39.272 230.817 38.924C230.241 38.564 229.797 38.072 229.485 37.448C229.173 36.824 229.017 36.11 229.017 35.306C229.017 34.562 229.197 33.878 229.557 33.254C229.929 32.63 230.421 32.132 231.033 31.76C231.657 31.376 232.353 31.184 233.121 31.184ZM233.139 32.84C232.695 32.84 232.299 32.948 231.951 33.164C231.603 33.38 231.327 33.674 231.123 34.046C230.919 34.418 230.817 34.838 230.817 35.306C230.817 35.774 230.907 36.2 231.087 36.584C231.267 36.956 231.531 37.25 231.879 37.466C232.227 37.682 232.635 37.79 233.103 37.79C233.571 37.79 233.985 37.682 234.345 37.466C234.705 37.238 234.987 36.932 235.191 36.548C235.395 36.164 235.497 35.744 235.497 35.288C235.497 34.832 235.395 34.424 235.191 34.064C234.987 33.692 234.711 33.398 234.363 33.182C234.015 32.954 233.607 32.84 233.139 32.84ZM245.626 31.4H251.854C252.106 31.4 252.316 31.484 252.484 31.652C252.664 31.82 252.754 32.03 252.754 32.282C252.754 32.534 252.664 32.738 252.484 32.894C252.316 33.05 252.106 33.128 251.854 33.128H246.418L246.598 32.822V36.854L246.436 36.674H251.044C251.296 36.674 251.506 36.758 251.674 36.926C251.854 37.094 251.944 37.31 251.944 37.574C251.944 37.826 251.854 38.03 251.674 38.186C251.506 38.342 251.296 38.42 251.044 38.42H246.472L246.598 38.258V42.416L246.472 42.272H251.854C252.106 42.272 252.316 42.362 252.484 42.542C252.664 42.71 252.754 42.908 252.754 43.136C252.754 43.388 252.664 43.598 252.484 43.766C252.316 43.922 252.106 44 251.854 44H245.626C245.374 44 245.158 43.916 244.978 43.748C244.798 43.568 244.708 43.346 244.708 43.082V32.318C244.708 32.054 244.798 31.838 244.978 31.67C245.158 31.49 245.374 31.4 245.626 31.4ZM259.095 44C258.807 44 258.573 43.916 258.393 43.748C258.225 43.568 258.141 43.346 258.141 43.082V32.3H260.067V43.082C260.067 43.346 259.971 43.568 259.779 43.748C259.599 43.916 259.371 44 259.095 44ZM255.009 33.128C254.757 33.128 254.541 33.05 254.361 32.894C254.181 32.726 254.091 32.51 254.091 32.246C254.091 31.994 254.181 31.79 254.361 31.634C254.541 31.478 254.757 31.4 255.009 31.4H263.199C263.451 31.4 263.661 31.484 263.829 31.652C264.009 31.808 264.099 32.012 264.099 32.264C264.099 32.528 264.009 32.738 263.829 32.894C263.661 33.05 263.451 33.128 263.199 33.128H255.009ZM267.108 31.4C267.348 31.4 267.558 31.49 267.738 31.67C267.93 31.838 268.026 32.054 268.026 32.318V43.082C268.014 43.346 267.912 43.568 267.72 43.748C267.54 43.916 267.324 44 267.072 44C266.796 44 266.568 43.916 266.388 43.748C266.22 43.568 266.136 43.346 266.136 43.082V32.318C266.136 32.054 266.226 31.838 266.406 31.67C266.586 31.49 266.82 31.4 267.108 31.4ZM275.226 31.4C275.514 31.4 275.742 31.49 275.91 31.67C276.078 31.838 276.162 32.054 276.162 32.318V43.082C276.162 43.346 276.072 43.568 275.892 43.748C275.724 43.916 275.496 44 275.208 44C274.956 44 274.74 43.916 274.56 43.748C274.38 43.568 274.29 43.346 274.29 43.082V32.318C274.29 32.054 274.38 31.838 274.56 31.67C274.752 31.49 274.974 31.4 275.226 31.4ZM267.036 36.764H275.244L275.226 38.492H267.018L267.036 36.764Z" fill="white"/>
<path d="M35.708 68C35.516 68 35.36 67.944 35.24 67.832C35.128 67.712 35.072 67.564 35.072 67.388V60.2H36.356V67.388C36.356 67.564 36.292 67.712 36.164 67.832C36.044 67.944 35.892 68 35.708 68ZM32.984 60.752C32.816 60.752 32.672 60.7 32.552 60.596C32.432 60.484 32.372 60.34 32.372 60.164C32.372 59.996 32.432 59.86 32.552 59.756C32.672 59.652 32.816 59.6 32.984 59.6H38.444C38.612 59.6 38.752 59.656 38.864 59.768C38.984 59.872 39.044 60.008 39.044 60.176C39.044 60.352 38.984 60.492 38.864 60.596C38.752 60.7 38.612 60.752 38.444 60.752H32.984ZM41.3977 67.388C41.3977 67.564 41.3417 67.712 41.2297 67.832C41.1177 67.944 40.9737 68 40.7977 68C40.6297 68 40.4857 67.944 40.3657 67.832C40.2537 67.712 40.1977 67.564 40.1977 67.388V62.252C40.1977 62.076 40.2537 61.932 40.3657 61.82C40.4857 61.7 40.6297 61.64 40.7977 61.64C40.9737 61.64 41.1177 61.7 41.2297 61.82C41.3417 61.932 41.3977 62.076 41.3977 62.252V67.388ZM40.7857 60.848C40.5537 60.848 40.3857 60.808 40.2817 60.728C40.1777 60.64 40.1257 60.496 40.1257 60.296V60.104C40.1257 59.904 40.1817 59.764 40.2937 59.684C40.4057 59.604 40.5737 59.564 40.7977 59.564C41.0377 59.564 41.2097 59.608 41.3137 59.696C41.4177 59.776 41.4697 59.912 41.4697 60.104V60.296C41.4697 60.504 41.4137 60.648 41.3017 60.728C41.1977 60.808 41.0257 60.848 40.7857 60.848ZM46.1799 61.58C46.7719 61.58 47.2279 61.728 47.5479 62.024C47.8679 62.312 48.0799 62.704 48.1839 63.2L47.9919 63.14L48.0759 62.948C48.1799 62.74 48.3359 62.532 48.5439 62.324C48.7599 62.108 49.0159 61.932 49.3119 61.796C49.6079 61.652 49.9239 61.58 50.2599 61.58C50.8119 61.58 51.2399 61.7 51.5439 61.94C51.8479 62.172 52.0599 62.488 52.1799 62.888C52.2999 63.28 52.3599 63.72 52.3599 64.208V67.388C52.3599 67.564 52.3039 67.712 52.1919 67.832C52.0799 67.944 51.9359 68 51.7599 68C51.5919 68 51.4479 67.944 51.3279 67.832C51.2159 67.712 51.1599 67.564 51.1599 67.388V64.22C51.1599 63.94 51.1199 63.684 51.0399 63.452C50.9679 63.22 50.8359 63.036 50.6439 62.9C50.4599 62.756 50.2039 62.684 49.8759 62.684C49.5639 62.684 49.2839 62.756 49.0359 62.9C48.7959 63.036 48.6079 63.22 48.4719 63.452C48.3359 63.684 48.2679 63.94 48.2679 64.22V67.388C48.2679 67.564 48.2119 67.712 48.0999 67.832C47.9879 67.944 47.8439 68 47.6679 68C47.4919 68 47.3479 67.944 47.2359 67.832C47.1239 67.712 47.0679 67.564 47.0679 67.388V64.208C47.0679 63.928 47.0279 63.672 46.9479 63.44C46.8759 63.208 46.7479 63.024 46.5639 62.888C46.3799 62.752 46.1239 62.684 45.7959 62.684C45.4839 62.684 45.2079 62.752 44.9679 62.888C44.7279 63.024 44.5399 63.208 44.4039 63.44C44.2759 63.672 44.2119 63.928 44.2119 64.208V67.388C44.2119 67.564 44.1519 67.712 44.0319 67.832C43.9199 67.944 43.7799 68 43.6119 68C43.4359 68 43.2919 67.944 43.1799 67.832C43.0679 67.712 43.0119 67.564 43.0119 67.388V62.3C43.0119 62.124 43.0679 61.98 43.1799 61.868C43.2919 61.748 43.4359 61.688 43.6119 61.688C43.7799 61.688 43.9199 61.748 44.0319 61.868C44.1519 61.98 44.2119 62.124 44.2119 62.3V63.008L43.9839 63.14C44.0399 62.964 44.1319 62.784 44.2599 62.6C44.3879 62.416 44.5479 62.248 44.7399 62.096C44.9399 61.944 45.1599 61.82 45.3999 61.724C45.6399 61.628 45.8999 61.58 46.1799 61.58ZM56.9792 68.12C56.3152 68.12 55.7392 67.984 55.2512 67.712C54.7632 67.432 54.3832 67.052 54.1112 66.572C53.8472 66.084 53.7152 65.528 53.7152 64.904C53.7152 64.2 53.8552 63.6 54.1352 63.104C54.4232 62.6 54.7952 62.216 55.2512 61.952C55.7072 61.68 56.1912 61.544 56.7032 61.544C57.0952 61.544 57.4672 61.624 57.8192 61.784C58.1712 61.936 58.4832 62.152 58.7552 62.432C59.0352 62.704 59.2552 63.028 59.4152 63.404C59.5752 63.772 59.6592 64.176 59.6672 64.616C59.6592 64.776 59.5952 64.908 59.4752 65.012C59.3552 65.116 59.2152 65.168 59.0552 65.168H54.3872L54.0992 64.148H58.6112L58.3832 64.364V64.064C58.3672 63.784 58.2752 63.54 58.1072 63.332C57.9392 63.116 57.7312 62.952 57.4832 62.84C57.2352 62.72 56.9752 62.66 56.7032 62.66C56.4632 62.66 56.2312 62.7 56.0072 62.78C55.7912 62.852 55.5952 62.972 55.4192 63.14C55.2512 63.308 55.1152 63.532 55.0112 63.812C54.9152 64.084 54.8672 64.424 54.8672 64.832C54.8672 65.272 54.9592 65.656 55.1432 65.984C55.3272 66.312 55.5752 66.568 55.8872 66.752C56.1992 66.928 56.5432 67.016 56.9192 67.016C57.2152 67.016 57.4592 66.988 57.6512 66.932C57.8432 66.868 58.0032 66.792 58.1312 66.704C58.2592 66.616 58.3712 66.532 58.4672 66.452C58.5872 66.38 58.7072 66.344 58.8272 66.344C58.9712 66.344 59.0912 66.396 59.1872 66.5C59.2832 66.596 59.3312 66.712 59.3312 66.848C59.3312 67.024 59.2432 67.184 59.0672 67.328C58.8512 67.536 58.5512 67.72 58.1672 67.88C57.7912 68.04 57.3952 68.12 56.9792 68.12ZM65.2154 68C65.0234 68 64.8554 67.944 64.7114 67.832C64.5674 67.712 64.4954 67.564 64.4954 67.388V60.212C64.4954 60.036 64.5554 59.892 64.6754 59.78C64.7954 59.66 64.9394 59.6 65.1074 59.6H68.4914C68.9234 59.6 69.3194 59.708 69.6794 59.924C70.0394 60.132 70.3274 60.424 70.5434 60.8C70.7674 61.168 70.8794 61.592 70.8794 62.072C70.8794 62.392 70.8154 62.7 70.6874 62.996C70.5594 63.284 70.3874 63.54 70.1714 63.764C69.9554 63.988 69.7114 64.156 69.4394 64.268L69.3074 64.04C69.5554 64.128 69.7714 64.256 69.9554 64.424C70.1394 64.584 70.2834 64.776 70.3874 65C70.4994 65.216 70.5594 65.464 70.5674 65.744C70.5914 65.992 70.6114 66.2 70.6274 66.368C70.6514 66.528 70.6834 66.66 70.7234 66.764C70.7634 66.868 70.8354 66.948 70.9394 67.004C71.0834 67.084 71.1714 67.204 71.2034 67.364C71.2434 67.524 71.2114 67.668 71.1074 67.796C71.0354 67.892 70.9434 67.956 70.8314 67.988C70.7274 68.012 70.6194 68.016 70.5074 68C70.3954 67.976 70.2994 67.944 70.2194 67.904C70.0914 67.824 69.9594 67.712 69.8234 67.568C69.6954 67.416 69.5914 67.208 69.5114 66.944C69.4314 66.68 69.3914 66.332 69.3914 65.9C69.3914 65.7 69.3594 65.528 69.2954 65.384C69.2314 65.24 69.1434 65.124 69.0314 65.036C68.9194 64.94 68.7874 64.872 68.6354 64.832C68.4834 64.784 68.3154 64.76 68.1314 64.76H65.5874L65.7554 64.52V67.388C65.7554 67.564 65.7074 67.712 65.6114 67.832C65.5154 67.944 65.3834 68 65.2154 68ZM65.5994 63.716H68.4674C68.6514 63.708 68.8274 63.636 68.9954 63.5C69.1714 63.356 69.3114 63.164 69.4154 62.924C69.5274 62.684 69.5834 62.412 69.5834 62.108C69.5834 61.724 69.4674 61.404 69.2354 61.148C69.0114 60.884 68.7434 60.752 68.4314 60.752H65.6234L65.7554 60.44V63.968L65.5994 63.716ZM75.4128 68.12C74.7488 68.12 74.1728 67.984 73.6848 67.712C73.1968 67.432 72.8168 67.052 72.5448 66.572C72.2808 66.084 72.1488 65.528 72.1488 64.904C72.1488 64.2 72.2888 63.6 72.5688 63.104C72.8568 62.6 73.2288 62.216 73.6848 61.952C74.1408 61.68 74.6248 61.544 75.1368 61.544C75.5288 61.544 75.9008 61.624 76.2528 61.784C76.6048 61.936 76.9168 62.152 77.1888 62.432C77.4688 62.704 77.6888 63.028 77.8488 63.404C78.0088 63.772 78.0928 64.176 78.1008 64.616C78.0928 64.776 78.0288 64.908 77.9088 65.012C77.7888 65.116 77.6488 65.168 77.4888 65.168H72.8208L72.5328 64.148H77.0448L76.8168 64.364V64.064C76.8008 63.784 76.7088 63.54 76.5408 63.332C76.3728 63.116 76.1648 62.952 75.9168 62.84C75.6688 62.72 75.4088 62.66 75.1368 62.66C74.8968 62.66 74.6648 62.7 74.4408 62.78C74.2248 62.852 74.0288 62.972 73.8528 63.14C73.6848 63.308 73.5488 63.532 73.4448 63.812C73.3488 64.084 73.3008 64.424 73.3008 64.832C73.3008 65.272 73.3928 65.656 73.5768 65.984C73.7608 66.312 74.0088 66.568 74.3208 66.752C74.6328 66.928 74.9768 67.016 75.3528 67.016C75.6488 67.016 75.8928 66.988 76.0848 66.932C76.2768 66.868 76.4368 66.792 76.5648 66.704C76.6928 66.616 76.8048 66.532 76.9008 66.452C77.0208 66.38 77.1408 66.344 77.2608 66.344C77.4048 66.344 77.5248 66.396 77.6208 66.5C77.7168 66.596 77.7648 66.712 77.7648 66.848C77.7648 67.024 77.6768 67.184 77.5008 67.328C77.2848 67.536 76.9848 67.72 76.6008 67.88C76.2248 68.04 75.8288 68.12 75.4128 68.12ZM84.6761 61.592C84.8521 61.592 84.9961 61.652 85.1081 61.772C85.2201 61.884 85.2761 62.028 85.2761 62.204V67.388C85.2761 67.564 85.2201 67.712 85.1081 67.832C84.9961 67.944 84.8521 68 84.6761 68C84.5081 68 84.3641 67.944 84.2441 67.832C84.1321 67.712 84.0761 67.564 84.0761 67.388V66.524L84.3281 66.56C84.3281 66.704 84.2681 66.864 84.1481 67.04C84.0361 67.216 83.8801 67.388 83.6801 67.556C83.4801 67.716 83.2441 67.852 82.9721 67.964C82.7001 68.068 82.4081 68.12 82.0961 68.12C81.5441 68.12 81.0481 67.98 80.6081 67.7C80.1681 67.412 79.8201 67.02 79.5641 66.524C79.3081 66.028 79.1801 65.464 79.1801 64.832C79.1801 64.184 79.3081 63.616 79.5641 63.128C79.8201 62.632 80.1641 62.244 80.5961 61.964C81.0361 61.684 81.5241 61.544 82.0601 61.544C82.4041 61.544 82.7201 61.6 83.0081 61.712C83.3041 61.824 83.5601 61.968 83.7761 62.144C83.9921 62.32 84.1561 62.508 84.2681 62.708C84.3881 62.9 84.4481 63.084 84.4481 63.26L84.0761 63.296V62.204C84.0761 62.036 84.1321 61.892 84.2441 61.772C84.3641 61.652 84.5081 61.592 84.6761 61.592ZM82.2281 67.016C82.6041 67.016 82.9361 66.92 83.2241 66.728C83.5121 66.536 83.7361 66.276 83.8961 65.948C84.0561 65.612 84.1361 65.24 84.1361 64.832C84.1361 64.416 84.0561 64.044 83.8961 63.716C83.7361 63.388 83.5121 63.128 83.2241 62.936C82.9361 62.744 82.6041 62.648 82.2281 62.648C81.8601 62.648 81.5321 62.744 81.2441 62.936C80.9641 63.128 80.7401 63.388 80.5721 63.716C80.4121 64.044 80.3321 64.416 80.3321 64.832C80.3321 65.24 80.4121 65.612 80.5721 65.948C80.7401 66.276 80.9641 66.536 81.2441 66.728C81.5321 66.92 81.8601 67.016 82.2281 67.016ZM90.1252 61.58C90.7172 61.58 91.1732 61.728 91.4932 62.024C91.8132 62.312 92.0252 62.704 92.1292 63.2L91.9372 63.14L92.0212 62.948C92.1252 62.74 92.2812 62.532 92.4892 62.324C92.7052 62.108 92.9612 61.932 93.2572 61.796C93.5532 61.652 93.8692 61.58 94.2052 61.58C94.7572 61.58 95.1852 61.7 95.4892 61.94C95.7932 62.172 96.0052 62.488 96.1252 62.888C96.2452 63.28 96.3052 63.72 96.3052 64.208V67.388C96.3052 67.564 96.2492 67.712 96.1372 67.832C96.0252 67.944 95.8812 68 95.7052 68C95.5372 68 95.3932 67.944 95.2732 67.832C95.1612 67.712 95.1052 67.564 95.1052 67.388V64.22C95.1052 63.94 95.0652 63.684 94.9852 63.452C94.9132 63.22 94.7812 63.036 94.5892 62.9C94.4052 62.756 94.1492 62.684 93.8212 62.684C93.5092 62.684 93.2292 62.756 92.9812 62.9C92.7412 63.036 92.5532 63.22 92.4172 63.452C92.2812 63.684 92.2132 63.94 92.2132 64.22V67.388C92.2132 67.564 92.1572 67.712 92.0452 67.832C91.9332 67.944 91.7892 68 91.6132 68C91.4372 68 91.2932 67.944 91.1812 67.832C91.0692 67.712 91.0132 67.564 91.0132 67.388V64.208C91.0132 63.928 90.9732 63.672 90.8932 63.44C90.8212 63.208 90.6932 63.024 90.5092 62.888C90.3252 62.752 90.0692 62.684 89.7412 62.684C89.4292 62.684 89.1532 62.752 88.9132 62.888C88.6732 63.024 88.4852 63.208 88.3492 63.44C88.2212 63.672 88.1572 63.928 88.1572 64.208V67.388C88.1572 67.564 88.0972 67.712 87.9772 67.832C87.8652 67.944 87.7252 68 87.5572 68C87.3812 68 87.2372 67.944 87.1252 67.832C87.0132 67.712 86.9572 67.564 86.9572 67.388V62.3C86.9572 62.124 87.0132 61.98 87.1252 61.868C87.2372 61.748 87.3812 61.688 87.5572 61.688C87.7252 61.688 87.8652 61.748 87.9772 61.868C88.0972 61.98 88.1572 62.124 88.1572 62.3V63.008L87.9292 63.14C87.9852 62.964 88.0772 62.784 88.2052 62.6C88.3332 62.416 88.4932 62.248 88.6852 62.096C88.8852 61.944 89.1052 61.82 89.3452 61.724C89.5852 61.628 89.8452 61.58 90.1252 61.58ZM99.1125 67.388C99.1125 67.564 99.0565 67.712 98.9445 67.832C98.8325 67.944 98.6885 68 98.5125 68C98.3445 68 98.2005 67.944 98.0805 67.832C97.9685 67.712 97.9125 67.564 97.9125 67.388V62.252C97.9125 62.076 97.9685 61.932 98.0805 61.82C98.2005 61.7 98.3445 61.64 98.5125 61.64C98.6885 61.64 98.8325 61.7 98.9445 61.82C99.0565 61.932 99.1125 62.076 99.1125 62.252V67.388ZM98.5005 60.848C98.2685 60.848 98.1005 60.808 97.9965 60.728C97.8925 60.64 97.8405 60.496 97.8405 60.296V60.104C97.8405 59.904 97.8965 59.764 98.0085 59.684C98.1205 59.604 98.2885 59.564 98.5125 59.564C98.7525 59.564 98.9245 59.608 99.0285 59.696C99.1325 59.776 99.1845 59.912 99.1845 60.104V60.296C99.1845 60.504 99.1285 60.648 99.0165 60.728C98.9125 60.808 98.7405 60.848 98.5005 60.848ZM103.979 61.544C104.547 61.544 104.987 61.664 105.299 61.904C105.611 62.136 105.827 62.452 105.947 62.852C106.075 63.244 106.139 63.684 106.139 64.172V67.388C106.139 67.564 106.079 67.712 105.959 67.832C105.847 67.944 105.707 68 105.539 68C105.363 68 105.219 67.944 105.107 67.832C104.995 67.712 104.939 67.564 104.939 67.388V64.184C104.939 63.896 104.899 63.64 104.819 63.416C104.739 63.184 104.599 63 104.399 62.864C104.207 62.72 103.935 62.648 103.583 62.648C103.255 62.648 102.967 62.72 102.719 62.864C102.471 63 102.275 63.184 102.131 63.416C101.995 63.64 101.927 63.896 101.927 64.184V67.388C101.927 67.564 101.867 67.712 101.747 67.832C101.635 67.944 101.495 68 101.327 68C101.151 68 101.007 67.944 100.895 67.832C100.783 67.712 100.727 67.564 100.727 67.388V62.3C100.727 62.124 100.783 61.98 100.895 61.868C101.007 61.748 101.151 61.688 101.327 61.688C101.495 61.688 101.635 61.748 101.747 61.868C101.867 61.98 101.927 62.124 101.927 62.3V62.972L101.711 63.092C101.767 62.916 101.863 62.74 101.999 62.564C102.143 62.38 102.315 62.212 102.515 62.06C102.715 61.9 102.939 61.776 103.187 61.688C103.435 61.592 103.699 61.544 103.979 61.544ZM108.933 67.388C108.933 67.564 108.877 67.712 108.765 67.832C108.653 67.944 108.509 68 108.333 68C108.165 68 108.021 67.944 107.901 67.832C107.789 67.712 107.733 67.564 107.733 67.388V62.252C107.733 62.076 107.789 61.932 107.901 61.82C108.021 61.7 108.165 61.64 108.333 61.64C108.509 61.64 108.653 61.7 108.765 61.82C108.877 61.932 108.933 62.076 108.933 62.252V67.388ZM108.321 60.848C108.089 60.848 107.921 60.808 107.817 60.728C107.713 60.64 107.661 60.496 107.661 60.296V60.104C107.661 59.904 107.717 59.764 107.829 59.684C107.941 59.604 108.109 59.564 108.333 59.564C108.573 59.564 108.745 59.608 108.849 59.696C108.953 59.776 109.005 59.912 109.005 60.104V60.296C109.005 60.504 108.949 60.648 108.837 60.728C108.733 60.808 108.561 60.848 108.321 60.848ZM113.799 61.544C114.367 61.544 114.807 61.664 115.119 61.904C115.431 62.136 115.647 62.452 115.767 62.852C115.895 63.244 115.959 63.684 115.959 64.172V67.388C115.959 67.564 115.899 67.712 115.779 67.832C115.667 67.944 115.527 68 115.359 68C115.183 68 115.039 67.944 114.927 67.832C114.815 67.712 114.759 67.564 114.759 67.388V64.184C114.759 63.896 114.719 63.64 114.639 63.416C114.559 63.184 114.419 63 114.219 62.864C114.027 62.72 113.755 62.648 113.403 62.648C113.075 62.648 112.787 62.72 112.539 62.864C112.291 63 112.095 63.184 111.951 63.416C111.815 63.64 111.747 63.896 111.747 64.184V67.388C111.747 67.564 111.687 67.712 111.567 67.832C111.455 67.944 111.315 68 111.147 68C110.971 68 110.827 67.944 110.715 67.832C110.603 67.712 110.547 67.564 110.547 67.388V62.3C110.547 62.124 110.603 61.98 110.715 61.868C110.827 61.748 110.971 61.688 111.147 61.688C111.315 61.688 111.455 61.748 111.567 61.868C111.687 61.98 111.747 62.124 111.747 62.3V62.972L111.531 63.092C111.587 62.916 111.683 62.74 111.819 62.564C111.963 62.38 112.135 62.212 112.335 62.06C112.535 61.9 112.759 61.776 113.007 61.688C113.255 61.592 113.519 61.544 113.799 61.544ZM120.253 61.544C120.597 61.544 120.913 61.6 121.201 61.712C121.489 61.824 121.737 61.968 121.945 62.144C122.161 62.312 122.329 62.488 122.449 62.672C122.569 62.856 122.629 63.016 122.629 63.152L122.353 63.164V62.204C122.353 62.036 122.409 61.892 122.521 61.772C122.633 61.652 122.777 61.592 122.953 61.592C123.129 61.592 123.273 61.652 123.385 61.772C123.497 61.884 123.553 62.028 123.553 62.204V67.496C123.553 68.176 123.409 68.728 123.121 69.152C122.833 69.584 122.449 69.9 121.969 70.1C121.497 70.3 120.977 70.4 120.409 70.4C120.209 70.4 119.973 70.372 119.701 70.316C119.429 70.268 119.177 70.208 118.945 70.136C118.721 70.064 118.565 69.992 118.477 69.92C118.293 69.824 118.169 69.712 118.105 69.584C118.049 69.456 118.049 69.328 118.105 69.2C118.185 69.024 118.293 68.916 118.429 68.876C118.565 68.836 118.721 68.848 118.897 68.912C118.977 68.936 119.101 68.98 119.269 69.044C119.437 69.108 119.625 69.164 119.833 69.212C120.041 69.268 120.237 69.296 120.421 69.296C121.061 69.296 121.541 69.148 121.861 68.852C122.189 68.556 122.353 68.152 122.353 67.64V66.56L122.485 66.644C122.461 66.812 122.385 66.984 122.257 67.16C122.137 67.328 121.977 67.484 121.777 67.628C121.577 67.772 121.345 67.892 121.081 67.988C120.825 68.076 120.561 68.12 120.289 68.12C119.721 68.12 119.213 67.98 118.765 67.7C118.317 67.412 117.961 67.024 117.697 66.536C117.433 66.04 117.301 65.472 117.301 64.832C117.301 64.192 117.433 63.628 117.697 63.14C117.961 62.644 118.313 62.256 118.753 61.976C119.201 61.688 119.701 61.544 120.253 61.544ZM120.433 62.648C120.041 62.648 119.697 62.744 119.401 62.936C119.105 63.128 118.873 63.388 118.705 63.716C118.537 64.044 118.453 64.416 118.453 64.832C118.453 65.248 118.537 65.62 118.705 65.948C118.873 66.276 119.105 66.536 119.401 66.728C119.697 66.92 120.041 67.016 120.433 67.016C120.825 67.016 121.169 66.924 121.465 66.74C121.761 66.548 121.993 66.288 122.161 65.96C122.329 65.624 122.413 65.248 122.413 64.832C122.413 64.416 122.329 64.044 122.161 63.716C121.993 63.38 121.761 63.12 121.465 62.936C121.169 62.744 120.825 62.648 120.433 62.648Z" fill="white"/>
<path d="M197.62 59.6C197.78 59.6 197.92 59.66 198.04 59.78C198.168 59.892 198.232 60.036 198.232 60.212V67.388C198.224 67.564 198.156 67.712 198.028 67.832C197.908 67.944 197.764 68 197.596 68C197.412 68 197.26 67.944 197.14 67.832C197.028 67.712 196.972 67.564 196.972 67.388V60.212C196.972 60.036 197.032 59.892 197.152 59.78C197.272 59.66 197.428 59.6 197.62 59.6ZM203.032 59.6C203.224 59.6 203.376 59.66 203.488 59.78C203.6 59.892 203.656 60.036 203.656 60.212V67.388C203.656 67.564 203.596 67.712 203.476 67.832C203.364 67.944 203.212 68 203.02 68C202.852 68 202.708 67.944 202.588 67.832C202.468 67.712 202.408 67.564 202.408 67.388V60.212C202.408 60.036 202.468 59.892 202.588 59.78C202.716 59.66 202.864 59.6 203.032 59.6ZM197.572 63.176H203.044L203.032 64.328H197.56L197.572 63.176ZM206.593 67.388C206.593 67.564 206.537 67.712 206.425 67.832C206.313 67.944 206.169 68 205.993 68C205.825 68 205.681 67.944 205.561 67.832C205.449 67.712 205.393 67.564 205.393 67.388V62.252C205.393 62.076 205.449 61.932 205.561 61.82C205.681 61.7 205.825 61.64 205.993 61.64C206.169 61.64 206.313 61.7 206.425 61.82C206.537 61.932 206.593 62.076 206.593 62.252V67.388ZM205.981 60.848C205.749 60.848 205.581 60.808 205.477 60.728C205.373 60.64 205.321 60.496 205.321 60.296V60.104C205.321 59.904 205.377 59.764 205.489 59.684C205.601 59.604 205.769 59.564 205.993 59.564C206.233 59.564 206.405 59.608 206.509 59.696C206.613 59.776 206.665 59.912 206.665 60.104V60.296C206.665 60.504 206.609 60.648 206.497 60.728C206.393 60.808 206.221 60.848 205.981 60.848ZM210.835 61.544C211.179 61.544 211.495 61.6 211.783 61.712C212.071 61.824 212.319 61.968 212.527 62.144C212.743 62.312 212.911 62.488 213.031 62.672C213.151 62.856 213.211 63.016 213.211 63.152L212.935 63.164V62.204C212.935 62.036 212.991 61.892 213.103 61.772C213.215 61.652 213.359 61.592 213.535 61.592C213.711 61.592 213.855 61.652 213.967 61.772C214.079 61.884 214.135 62.028 214.135 62.204V67.496C214.135 68.176 213.991 68.728 213.703 69.152C213.415 69.584 213.031 69.9 212.551 70.1C212.079 70.3 211.559 70.4 210.991 70.4C210.791 70.4 210.555 70.372 210.283 70.316C210.011 70.268 209.759 70.208 209.527 70.136C209.303 70.064 209.147 69.992 209.059 69.92C208.875 69.824 208.751 69.712 208.687 69.584C208.631 69.456 208.631 69.328 208.687 69.2C208.767 69.024 208.875 68.916 209.011 68.876C209.147 68.836 209.303 68.848 209.479 68.912C209.559 68.936 209.683 68.98 209.851 69.044C210.019 69.108 210.207 69.164 210.415 69.212C210.623 69.268 210.819 69.296 211.003 69.296C211.643 69.296 212.123 69.148 212.443 68.852C212.771 68.556 212.935 68.152 212.935 67.64V66.56L213.067 66.644C213.043 66.812 212.967 66.984 212.839 67.16C212.719 67.328 212.559 67.484 212.359 67.628C212.159 67.772 211.927 67.892 211.663 67.988C211.407 68.076 211.143 68.12 210.871 68.12C210.303 68.12 209.795 67.98 209.347 67.7C208.899 67.412 208.543 67.024 208.279 66.536C208.015 66.04 207.883 65.472 207.883 64.832C207.883 64.192 208.015 63.628 208.279 63.14C208.543 62.644 208.895 62.256 209.335 61.976C209.783 61.688 210.283 61.544 210.835 61.544ZM211.015 62.648C210.623 62.648 210.279 62.744 209.983 62.936C209.687 63.128 209.455 63.388 209.287 63.716C209.119 64.044 209.035 64.416 209.035 64.832C209.035 65.248 209.119 65.62 209.287 65.948C209.455 66.276 209.687 66.536 209.983 66.728C210.279 66.92 210.623 67.016 211.015 67.016C211.407 67.016 211.751 66.924 212.047 66.74C212.343 66.548 212.575 66.288 212.743 65.96C212.911 65.624 212.995 65.248 212.995 64.832C212.995 64.416 212.911 64.044 212.743 63.716C212.575 63.38 212.343 63.12 212.047 62.936C211.751 62.744 211.407 62.648 211.015 62.648ZM218.981 61.58C219.533 61.58 219.961 61.7 220.265 61.94C220.569 62.172 220.781 62.488 220.901 62.888C221.029 63.288 221.093 63.728 221.093 64.208V67.388C221.093 67.564 221.033 67.712 220.913 67.832C220.801 67.944 220.661 68 220.493 68C220.317 68 220.173 67.944 220.061 67.832C219.949 67.712 219.893 67.564 219.893 67.388V64.208C219.893 63.928 219.853 63.672 219.773 63.44C219.701 63.208 219.569 63.024 219.377 62.888C219.193 62.752 218.933 62.684 218.597 62.684C218.285 62.684 218.005 62.752 217.757 62.888C217.517 63.024 217.329 63.208 217.193 63.44C217.065 63.672 217.001 63.928 217.001 64.208V67.388C217.001 67.564 216.941 67.712 216.821 67.832C216.709 67.944 216.569 68 216.401 68C216.225 68 216.081 67.944 215.969 67.832C215.857 67.712 215.801 67.564 215.801 67.388V59.732C215.801 59.556 215.857 59.412 215.969 59.3C216.081 59.18 216.225 59.12 216.401 59.12C216.569 59.12 216.709 59.18 216.821 59.3C216.941 59.412 217.001 59.556 217.001 59.732V63.008L216.785 63.128C216.841 62.952 216.933 62.772 217.061 62.588C217.197 62.404 217.361 62.236 217.553 62.084C217.753 61.932 217.973 61.812 218.213 61.724C218.453 61.628 218.709 61.58 218.981 61.58ZM225.702 68.12C225.038 68.12 224.462 67.984 223.974 67.712C223.486 67.432 223.106 67.052 222.834 66.572C222.57 66.084 222.438 65.528 222.438 64.904C222.438 64.2 222.578 63.6 222.858 63.104C223.146 62.6 223.518 62.216 223.974 61.952C224.43 61.68 224.914 61.544 225.426 61.544C225.818 61.544 226.19 61.624 226.542 61.784C226.894 61.936 227.206 62.152 227.478 62.432C227.758 62.704 227.978 63.028 228.138 63.404C228.298 63.772 228.382 64.176 228.39 64.616C228.382 64.776 228.318 64.908 228.198 65.012C228.078 65.116 227.938 65.168 227.778 65.168H223.11L222.822 64.148H227.334L227.106 64.364V64.064C227.09 63.784 226.998 63.54 226.83 63.332C226.662 63.116 226.454 62.952 226.206 62.84C225.958 62.72 225.698 62.66 225.426 62.66C225.186 62.66 224.954 62.7 224.73 62.78C224.514 62.852 224.318 62.972 224.142 63.14C223.974 63.308 223.838 63.532 223.734 63.812C223.638 64.084 223.59 64.424 223.59 64.832C223.59 65.272 223.682 65.656 223.866 65.984C224.05 66.312 224.298 66.568 224.61 66.752C224.922 66.928 225.266 67.016 225.642 67.016C225.938 67.016 226.182 66.988 226.374 66.932C226.566 66.868 226.726 66.792 226.854 66.704C226.982 66.616 227.094 66.532 227.19 66.452C227.31 66.38 227.43 66.344 227.55 66.344C227.694 66.344 227.814 66.396 227.91 66.5C228.006 66.596 228.054 66.712 228.054 66.848C228.054 67.024 227.966 67.184 227.79 67.328C227.574 67.536 227.274 67.72 226.89 67.88C226.514 68.04 226.118 68.12 225.702 68.12ZM229.374 67.016C229.302 66.904 229.27 66.776 229.278 66.632C229.286 66.48 229.37 66.352 229.53 66.248C229.642 66.176 229.758 66.148 229.878 66.164C230.006 66.172 230.126 66.232 230.238 66.344C230.462 66.592 230.71 66.788 230.982 66.932C231.262 67.076 231.598 67.148 231.99 67.148C232.15 67.14 232.314 67.116 232.482 67.076C232.65 67.028 232.794 66.948 232.914 66.836C233.034 66.716 233.094 66.544 233.094 66.32C233.094 66.12 233.03 65.96 232.902 65.84C232.774 65.72 232.606 65.624 232.398 65.552C232.19 65.472 231.966 65.4 231.726 65.336C231.47 65.264 231.21 65.184 230.946 65.096C230.69 65.008 230.458 64.896 230.25 64.76C230.042 64.616 229.87 64.432 229.734 64.208C229.606 63.984 229.542 63.708 229.542 63.38C229.542 63.004 229.646 62.68 229.854 62.408C230.07 62.136 230.346 61.924 230.682 61.772C231.026 61.62 231.398 61.544 231.798 61.544C232.03 61.544 232.274 61.576 232.53 61.64C232.786 61.696 233.034 61.788 233.274 61.916C233.514 62.044 233.722 62.212 233.898 62.42C233.978 62.524 234.022 62.648 234.03 62.792C234.046 62.936 233.982 63.064 233.838 63.176C233.742 63.256 233.626 63.292 233.49 63.284C233.354 63.276 233.242 63.232 233.154 63.152C233.002 62.96 232.806 62.812 232.566 62.708C232.326 62.596 232.054 62.54 231.75 62.54C231.598 62.54 231.438 62.564 231.27 62.612C231.11 62.652 230.974 62.728 230.862 62.84C230.75 62.952 230.694 63.116 230.694 63.332C230.694 63.532 230.758 63.692 230.886 63.812C231.022 63.932 231.198 64.032 231.414 64.112C231.63 64.192 231.866 64.264 232.122 64.328C232.37 64.392 232.614 64.468 232.854 64.556C233.102 64.644 233.322 64.76 233.514 64.904C233.714 65.04 233.874 65.22 233.994 65.444C234.122 65.66 234.186 65.936 234.186 66.272C234.186 66.664 234.07 67 233.838 67.28C233.614 67.552 233.326 67.76 232.974 67.904C232.63 68.048 232.266 68.12 231.882 68.12C231.426 68.12 230.97 68.04 230.514 67.88C230.066 67.712 229.686 67.424 229.374 67.016ZM235.393 61.76H238.213C238.373 61.76 238.505 61.816 238.609 61.928C238.721 62.032 238.777 62.164 238.777 62.324C238.777 62.476 238.721 62.604 238.609 62.708C238.505 62.812 238.373 62.864 238.213 62.864H235.393C235.233 62.864 235.097 62.812 234.985 62.708C234.881 62.596 234.829 62.464 234.829 62.312C234.829 62.152 234.881 62.02 234.985 61.916C235.097 61.812 235.233 61.76 235.393 61.76ZM236.653 60.2C236.829 60.2 236.973 60.26 237.085 60.38C237.197 60.492 237.253 60.636 237.253 60.812V66.38C237.253 66.524 237.277 66.64 237.325 66.728C237.373 66.816 237.437 66.876 237.517 66.908C237.605 66.94 237.693 66.956 237.781 66.956C237.869 66.956 237.945 66.94 238.009 66.908C238.081 66.876 238.165 66.86 238.261 66.86C238.357 66.86 238.445 66.904 238.525 66.992C238.605 67.08 238.645 67.2 238.645 67.352C238.645 67.544 238.541 67.7 238.333 67.82C238.125 67.94 237.901 68 237.661 68C237.525 68 237.365 67.988 237.181 67.964C236.997 67.94 236.817 67.88 236.641 67.784C236.473 67.688 236.333 67.536 236.221 67.328C236.109 67.112 236.053 66.812 236.053 66.428V60.812C236.053 60.636 236.109 60.492 236.221 60.38C236.341 60.26 236.485 60.2 236.653 60.2ZM247.261 59.6C247.997 59.6 248.553 59.78 248.929 60.14C249.313 60.5 249.505 61.024 249.505 61.712C249.505 62.072 249.417 62.4 249.241 62.696C249.073 62.984 248.821 63.212 248.485 63.38C248.157 63.548 247.745 63.636 247.249 63.644L247.273 63.2C247.537 63.2 247.821 63.236 248.125 63.308C248.437 63.38 248.729 63.504 249.001 63.68C249.273 63.856 249.497 64.096 249.673 64.4C249.849 64.696 249.937 65.068 249.937 65.516C249.937 66.004 249.857 66.412 249.697 66.74C249.537 67.06 249.325 67.312 249.061 67.496C248.797 67.68 248.505 67.812 248.185 67.892C247.873 67.964 247.565 68 247.261 68H244.189C244.021 68 243.877 67.944 243.757 67.832C243.637 67.712 243.577 67.564 243.577 67.388V60.212C243.577 60.036 243.637 59.892 243.757 59.78C243.877 59.66 244.021 59.6 244.189 59.6H247.261ZM247.093 60.776H244.729L244.873 60.584V63.164L244.741 63.032H247.117C247.405 63.024 247.657 62.928 247.873 62.744C248.097 62.552 248.209 62.272 248.209 61.904C248.209 61.528 248.109 61.248 247.909 61.064C247.709 60.872 247.437 60.776 247.093 60.776ZM247.177 64.208H244.789L244.873 64.124V66.956L244.777 66.848H247.249C247.665 66.848 248.001 66.74 248.257 66.524C248.513 66.3 248.641 65.964 248.641 65.516C248.641 65.14 248.565 64.86 248.413 64.676C248.261 64.492 248.073 64.368 247.849 64.304C247.625 64.24 247.401 64.208 247.177 64.208ZM252.425 67.388C252.425 67.564 252.369 67.712 252.257 67.832C252.145 67.944 252.001 68 251.825 68C251.657 68 251.513 67.944 251.393 67.832C251.281 67.712 251.225 67.564 251.225 67.388V62.252C251.225 62.076 251.281 61.932 251.393 61.82C251.513 61.7 251.657 61.64 251.825 61.64C252.001 61.64 252.145 61.7 252.257 61.82C252.369 61.932 252.425 62.076 252.425 62.252V67.388ZM251.813 60.848C251.581 60.848 251.413 60.808 251.309 60.728C251.205 60.64 251.153 60.496 251.153 60.296V60.104C251.153 59.904 251.209 59.764 251.321 59.684C251.433 59.604 251.601 59.564 251.825 59.564C252.065 59.564 252.237 59.608 252.341 59.696C252.445 59.776 252.497 59.912 252.497 60.104V60.296C252.497 60.504 252.441 60.648 252.329 60.728C252.225 60.808 252.053 60.848 251.813 60.848ZM259.211 59.12C259.387 59.12 259.531 59.176 259.643 59.288C259.755 59.4 259.811 59.548 259.811 59.732V67.388C259.811 67.564 259.755 67.712 259.643 67.832C259.531 67.944 259.387 68 259.211 68C259.043 68 258.899 67.944 258.779 67.832C258.667 67.712 258.611 67.564 258.611 67.388V66.524L258.863 66.536C258.863 66.68 258.803 66.844 258.683 67.028C258.571 67.204 258.415 67.376 258.215 67.544C258.015 67.712 257.779 67.852 257.507 67.964C257.235 68.068 256.943 68.12 256.631 68.12C256.079 68.12 255.583 67.98 255.143 67.7C254.703 67.412 254.355 67.024 254.099 66.536C253.843 66.04 253.715 65.472 253.715 64.832C253.715 64.192 253.843 63.628 254.099 63.14C254.355 62.644 254.699 62.256 255.131 61.976C255.571 61.688 256.059 61.544 256.595 61.544C256.931 61.544 257.243 61.6 257.531 61.712C257.827 61.824 258.083 61.968 258.299 62.144C258.515 62.32 258.683 62.508 258.803 62.708C258.923 62.9 258.983 63.084 258.983 63.26L258.611 63.296V59.732C258.611 59.556 258.667 59.412 258.779 59.3C258.899 59.18 259.043 59.12 259.211 59.12ZM256.763 67.016C257.147 67.016 257.479 66.92 257.759 66.728C258.047 66.536 258.271 66.276 258.431 65.948C258.591 65.62 258.671 65.248 258.671 64.832C258.671 64.416 258.591 64.044 258.431 63.716C258.271 63.388 258.047 63.128 257.759 62.936C257.471 62.744 257.139 62.648 256.763 62.648C256.395 62.648 256.067 62.744 255.779 62.936C255.499 63.128 255.275 63.388 255.107 63.716C254.947 64.044 254.867 64.416 254.867 64.832C254.867 65.248 254.947 65.62 255.107 65.948C255.275 66.276 255.499 66.536 255.779 66.728C256.067 66.92 256.395 67.016 256.763 67.016Z" fill="white"/>
<defs>
<filter id="filter0_b_4601_384" x="-12" y="-12" width="334" height="119" filterUnits="userSpaceOnUse" color-interpolation-filters="sRGB">
<feFlood flood-opacity="0" result="BackgroundImageFix"/>
<feGaussianBlur in="BackgroundImageFix" stdDeviation="6"/>
<feComposite in2="SourceAlpha" operator="in" result="effect1_backgroundBlur_4601_384"/>
<feBlend mode="normal" in="SourceGraphic" in2="effect1_backgroundBlur_4601_384" result="shape"/>
</filter>
</defs>
</svg>
