<svg width="307" height="95" viewBox="0 0 307 95" fill="none" xmlns="http://www.w3.org/2000/svg">
<g filter="url(#filter0_b_4601_394)">
<rect width="307" height="95" fill="black" fill-opacity="0.32"/>
<rect x="0.5" y="0.5" width="306" height="94" stroke="#B8B8B8"/>
</g>
<path d="M36.212 44C35.936 44 35.708 43.916 35.528 43.748C35.348 43.568 35.258 43.346 35.258 43.082V33.434L35.492 33.758L33.818 34.928C33.674 35.048 33.5 35.108 33.296 35.108C33.056 35.108 32.84 35.018 32.648 34.838C32.468 34.646 32.378 34.424 32.378 34.172C32.378 33.86 32.534 33.602 32.846 33.398L35.582 31.58C35.69 31.508 35.804 31.46 35.924 31.436C36.056 31.412 36.176 31.4 36.284 31.4C36.56 31.4 36.782 31.49 36.95 31.67C37.118 31.838 37.202 32.054 37.202 32.318V43.082C37.202 43.346 37.106 43.568 36.914 43.748C36.734 43.916 36.5 44 36.212 44ZM45.7126 37.628L45.6586 37.304C46.1026 37.484 46.4926 37.736 46.8286 38.06C47.1646 38.372 47.4226 38.726 47.6026 39.122C47.7946 39.518 47.8906 39.932 47.8906 40.364C47.8906 41.036 47.7046 41.654 47.3326 42.218C46.9726 42.77 46.4806 43.214 45.8566 43.55C45.2446 43.874 44.5606 44.036 43.8046 44.036C43.0366 44.036 42.3406 43.874 41.7166 43.55C41.1046 43.214 40.6126 42.77 40.2406 42.218C39.8806 41.654 39.7006 41.036 39.7006 40.364C39.7006 39.824 39.8146 39.35 40.0426 38.942C40.2706 38.534 40.5586 38.192 40.9066 37.916C41.2546 37.64 41.6086 37.412 41.9686 37.232L41.8426 37.628C41.5426 37.496 41.2486 37.316 40.9606 37.088C40.6846 36.848 40.4566 36.548 40.2766 36.188C40.0966 35.828 40.0066 35.414 40.0066 34.946C40.0066 34.286 40.1746 33.692 40.5106 33.164C40.8466 32.624 41.3026 32.198 41.8786 31.886C42.4546 31.562 43.0966 31.4 43.8046 31.4C44.5126 31.4 45.1486 31.562 45.7126 31.886C46.2766 32.198 46.7266 32.624 47.0626 33.164C47.3986 33.692 47.5666 34.286 47.5666 34.946C47.5666 35.45 47.4706 35.882 47.2786 36.242C47.0866 36.59 46.8466 36.878 46.5586 37.106C46.2706 37.334 45.9886 37.508 45.7126 37.628ZM41.8066 34.982C41.8066 35.354 41.8966 35.684 42.0766 35.972C42.2566 36.26 42.4966 36.488 42.7966 36.656C43.0966 36.824 43.4326 36.908 43.8046 36.908C44.1646 36.908 44.4946 36.824 44.7946 36.656C45.0946 36.488 45.3286 36.26 45.4966 35.972C45.6766 35.684 45.7666 35.354 45.7666 34.982C45.7666 34.418 45.5806 33.956 45.2086 33.596C44.8366 33.236 44.3686 33.056 43.8046 33.056C43.2166 33.056 42.7366 33.236 42.3646 33.596C41.9926 33.956 41.8066 34.418 41.8066 34.982ZM43.8046 42.38C44.4526 42.38 44.9926 42.188 45.4246 41.804C45.8686 41.408 46.0906 40.922 46.0906 40.346C46.0906 39.95 45.9886 39.596 45.7846 39.284C45.5806 38.972 45.3046 38.726 44.9566 38.546C44.6086 38.366 44.2246 38.276 43.8046 38.276C43.3846 38.276 43.0006 38.366 42.6526 38.546C42.3046 38.726 42.0286 38.972 41.8246 39.284C41.6206 39.596 41.5186 39.95 41.5186 40.346C41.5186 40.922 41.7346 41.408 42.1666 41.804C42.5986 42.188 43.1446 42.38 43.8046 42.38ZM54.7292 34.37C55.5572 34.37 56.1992 34.55 56.6552 34.91C57.1112 35.258 57.4292 35.732 57.6092 36.332C57.8012 36.932 57.8972 37.592 57.8972 38.312V43.082C57.8972 43.346 57.8072 43.568 57.6272 43.748C57.4592 43.916 57.2492 44 56.9972 44C56.7332 44 56.5172 43.916 56.3492 43.748C56.1812 43.568 56.0972 43.346 56.0972 43.082V38.312C56.0972 37.892 56.0372 37.508 55.9172 37.16C55.8092 36.812 55.6112 36.536 55.3232 36.332C55.0472 36.128 54.6572 36.026 54.1532 36.026C53.6852 36.026 53.2652 36.128 52.8932 36.332C52.5332 36.536 52.2512 36.812 52.0472 37.16C51.8552 37.508 51.7592 37.892 51.7592 38.312V43.082C51.7592 43.346 51.6692 43.568 51.4892 43.748C51.3212 43.916 51.1112 44 50.8592 44C50.5952 44 50.3792 43.916 50.2112 43.748C50.0432 43.568 49.9592 43.346 49.9592 43.082V31.598C49.9592 31.334 50.0432 31.118 50.2112 30.95C50.3792 30.77 50.5952 30.68 50.8592 30.68C51.1112 30.68 51.3212 30.77 51.4892 30.95C51.6692 31.118 51.7592 31.334 51.7592 31.598V36.512L51.4352 36.692C51.5192 36.428 51.6572 36.158 51.8492 35.882C52.0532 35.606 52.2992 35.354 52.5872 35.126C52.8872 34.898 53.2172 34.718 53.5772 34.586C53.9372 34.442 54.3212 34.37 54.7292 34.37ZM66.2564 36.8C65.9564 36.8 65.7224 36.722 65.5544 36.566C65.3984 36.398 65.3204 36.164 65.3204 35.864V35.522C65.3204 35.222 65.3984 34.988 65.5544 34.82C65.7224 34.652 65.9564 34.568 66.2564 34.568H66.4544C66.7544 34.568 66.9824 34.652 67.1384 34.82C67.2944 34.988 67.3724 35.222 67.3724 35.522V35.864C67.3724 36.164 67.2944 36.398 67.1384 36.566C66.9824 36.722 66.7544 36.8 66.4544 36.8H66.2564ZM66.2564 44C65.9564 44 65.7224 43.916 65.5544 43.748C65.3984 43.58 65.3204 43.346 65.3204 43.046V42.722C65.3204 42.41 65.3984 42.176 65.5544 42.02C65.7224 41.852 65.9564 41.768 66.2564 41.768H66.4544C66.7544 41.768 66.9824 41.852 67.1384 42.02C67.2944 42.176 67.3724 42.41 67.3724 42.722V43.046C67.3724 43.346 67.2944 43.58 67.1384 43.748C66.9824 43.916 66.7544 44 66.4544 44H66.2564ZM77.7667 44C77.4907 44 77.2627 43.916 77.0827 43.748C76.9027 43.568 76.8127 43.346 76.8127 43.082V33.434L77.0467 33.758L75.3727 34.928C75.2287 35.048 75.0547 35.108 74.8507 35.108C74.6107 35.108 74.3947 35.018 74.2027 34.838C74.0227 34.646 73.9327 34.424 73.9327 34.172C73.9327 33.86 74.0887 33.602 74.4007 33.398L77.1367 31.58C77.2447 31.508 77.3587 31.46 77.4787 31.436C77.6107 31.412 77.7307 31.4 77.8387 31.4C78.1147 31.4 78.3367 31.49 78.5047 31.67C78.6727 31.838 78.7567 32.054 78.7567 32.318V43.082C78.7567 43.346 78.6607 43.568 78.4687 43.748C78.2887 43.916 78.0547 44 77.7667 44ZM83.9193 44.072C83.6673 44.072 83.4453 43.994 83.2533 43.838C83.0733 43.67 82.9833 43.46 82.9833 43.208C82.9833 43.076 83.0133 42.938 83.0733 42.794L87.6093 32.768L87.8073 33.164H82.2993C82.0593 33.164 81.8553 33.086 81.6873 32.93C81.5313 32.762 81.4533 32.558 81.4533 32.318C81.4533 32.09 81.5313 31.898 81.6873 31.742C81.8553 31.586 82.0593 31.508 82.2993 31.508H88.6893C88.9533 31.508 89.1753 31.592 89.3553 31.76C89.5473 31.916 89.6433 32.12 89.6433 32.372C89.6433 32.516 89.6133 32.654 89.5533 32.786L84.7473 43.496C84.6753 43.676 84.5613 43.82 84.4053 43.928C84.2493 44.024 84.0873 44.072 83.9193 44.072ZM96.1253 34.37C97.0133 34.37 97.6973 34.592 98.1773 35.036C98.6573 35.468 98.9753 36.056 99.1313 36.8L98.8433 36.71L98.9693 36.422C99.1253 36.11 99.3593 35.798 99.6713 35.486C99.9953 35.162 100.379 34.898 100.823 34.694C101.267 34.478 101.741 34.37 102.245 34.37C103.073 34.37 103.715 34.55 104.171 34.91C104.627 35.258 104.945 35.732 105.125 36.332C105.305 36.92 105.395 37.58 105.395 38.312V43.082C105.395 43.346 105.311 43.568 105.143 43.748C104.975 43.916 104.759 44 104.495 44C104.243 44 104.027 43.916 103.847 43.748C103.679 43.568 103.595 43.346 103.595 43.082V38.33C103.595 37.91 103.535 37.526 103.415 37.178C103.307 36.83 103.109 36.554 102.821 36.35C102.545 36.134 102.161 36.026 101.669 36.026C101.201 36.026 100.781 36.134 100.409 36.35C100.049 36.554 99.7673 36.83 99.5633 37.178C99.3593 37.526 99.2573 37.91 99.2573 38.33V43.082C99.2573 43.346 99.1733 43.568 99.0053 43.748C98.8373 43.916 98.6213 44 98.3573 44C98.0933 44 97.8773 43.916 97.7093 43.748C97.5413 43.568 97.4573 43.346 97.4573 43.082V38.312C97.4573 37.892 97.3973 37.508 97.2773 37.16C97.1693 36.812 96.9773 36.536 96.7013 36.332C96.4253 36.128 96.0413 36.026 95.5493 36.026C95.0813 36.026 94.6673 36.128 94.3073 36.332C93.9473 36.536 93.6653 36.812 93.4613 37.16C93.2693 37.508 93.1733 37.892 93.1733 38.312V43.082C93.1733 43.346 93.0833 43.568 92.9033 43.748C92.7353 43.916 92.5253 44 92.2733 44C92.0093 44 91.7933 43.916 91.6253 43.748C91.4573 43.568 91.3733 43.346 91.3733 43.082V35.45C91.3733 35.186 91.4573 34.97 91.6253 34.802C91.7933 34.622 92.0093 34.532 92.2733 34.532C92.5253 34.532 92.7353 34.622 92.9033 34.802C93.0833 34.97 93.1733 35.186 93.1733 35.45V36.512L92.8313 36.71C92.9153 36.446 93.0533 36.176 93.2453 35.9C93.4373 35.624 93.6773 35.372 93.9653 35.144C94.2653 34.916 94.5953 34.73 94.9553 34.586C95.3153 34.442 95.7053 34.37 96.1253 34.37ZM113.77 36.8C113.47 36.8 113.236 36.722 113.068 36.566C112.912 36.398 112.834 36.164 112.834 35.864V35.522C112.834 35.222 112.912 34.988 113.068 34.82C113.236 34.652 113.47 34.568 113.77 34.568H113.968C114.268 34.568 114.496 34.652 114.652 34.82C114.808 34.988 114.886 35.222 114.886 35.522V35.864C114.886 36.164 114.808 36.398 114.652 36.566C114.496 36.722 114.268 36.8 113.968 36.8H113.77ZM113.77 44C113.47 44 113.236 43.916 113.068 43.748C112.912 43.58 112.834 43.346 112.834 43.046V42.722C112.834 42.41 112.912 42.176 113.068 42.02C113.236 41.852 113.47 41.768 113.77 41.768H113.968C114.268 41.768 114.496 41.852 114.652 42.02C114.808 42.176 114.886 42.41 114.886 42.722V43.046C114.886 43.346 114.808 43.58 114.652 43.748C114.496 43.916 114.268 44 113.968 44H113.77ZM129.402 42.326C129.642 42.326 129.84 42.41 129.996 42.578C130.164 42.734 130.248 42.932 130.248 43.172C130.248 43.412 130.164 43.61 129.996 43.766C129.84 43.922 129.642 44 129.402 44H123.084C122.82 44 122.61 43.922 122.454 43.766C122.298 43.61 122.22 43.4 122.22 43.136C122.22 42.896 122.304 42.68 122.472 42.488L126.486 38.15C127.002 37.598 127.398 37.052 127.674 36.512C127.962 35.972 128.106 35.498 128.106 35.09C128.106 34.43 127.908 33.896 127.512 33.488C127.116 33.08 126.594 32.876 125.946 32.876C125.67 32.876 125.388 32.942 125.1 33.074C124.824 33.194 124.56 33.362 124.308 33.578C124.068 33.782 123.858 34.022 123.678 34.298C123.558 34.466 123.438 34.574 123.318 34.622C123.198 34.67 123.084 34.694 122.976 34.694C122.748 34.694 122.538 34.616 122.346 34.46C122.166 34.292 122.076 34.1 122.076 33.884C122.076 33.716 122.13 33.554 122.238 33.398C122.346 33.242 122.484 33.08 122.652 32.912C122.916 32.588 123.234 32.3 123.606 32.048C123.99 31.784 124.392 31.58 124.812 31.436C125.232 31.292 125.646 31.22 126.054 31.22C126.846 31.22 127.53 31.376 128.106 31.688C128.694 32 129.144 32.438 129.456 33.002C129.78 33.566 129.942 34.232 129.942 35C129.942 35.648 129.744 36.368 129.348 37.16C128.964 37.94 128.424 38.708 127.728 39.464L124.938 42.506L124.74 42.326H129.402ZM136.287 31.184C136.959 31.184 137.553 31.316 138.069 31.58C138.597 31.844 139.035 32.204 139.383 32.66C139.743 33.104 140.013 33.614 140.193 34.19C140.385 34.754 140.481 35.342 140.481 35.954C140.481 36.422 140.427 36.962 140.319 37.574C140.211 38.174 140.031 38.804 139.779 39.464C139.527 40.124 139.191 40.76 138.771 41.372C138.363 41.984 137.847 42.536 137.223 43.028C136.611 43.508 135.879 43.88 135.027 44.144C134.907 44.168 134.793 44.18 134.685 44.18C134.445 44.18 134.229 44.114 134.037 43.982C133.857 43.85 133.767 43.634 133.767 43.334C133.767 43.106 133.839 42.914 133.983 42.758C134.127 42.602 134.319 42.488 134.559 42.416C135.147 42.2 135.723 41.87 136.287 41.426C136.851 40.97 137.337 40.436 137.745 39.824C138.153 39.2 138.429 38.534 138.573 37.826L139.023 37.754C138.843 38.006 138.615 38.264 138.339 38.528C138.063 38.792 137.733 39.014 137.349 39.194C136.965 39.362 136.521 39.446 136.017 39.446C135.237 39.446 134.559 39.272 133.983 38.924C133.407 38.564 132.963 38.072 132.651 37.448C132.339 36.824 132.183 36.11 132.183 35.306C132.183 34.562 132.363 33.878 132.723 33.254C133.095 32.63 133.587 32.132 134.199 31.76C134.823 31.376 135.519 31.184 136.287 31.184ZM136.305 32.84C135.861 32.84 135.465 32.948 135.117 33.164C134.769 33.38 134.493 33.674 134.289 34.046C134.085 34.418 133.983 34.838 133.983 35.306C133.983 35.774 134.073 36.2 134.253 36.584C134.433 36.956 134.697 37.25 135.045 37.466C135.393 37.682 135.801 37.79 136.269 37.79C136.737 37.79 137.151 37.682 137.511 37.466C137.871 37.238 138.153 36.932 138.357 36.548C138.561 36.164 138.663 35.744 138.663 35.288C138.663 34.832 138.561 34.424 138.357 34.064C138.153 33.692 137.877 33.398 137.529 33.182C137.181 32.954 136.773 32.84 136.305 32.84ZM142.108 42.524C142 42.356 141.952 42.164 141.964 41.948C141.976 41.72 142.102 41.528 142.342 41.372C142.51 41.264 142.684 41.222 142.864 41.246C143.056 41.258 143.236 41.348 143.404 41.516C143.74 41.888 144.112 42.182 144.52 42.398C144.94 42.614 145.444 42.722 146.032 42.722C146.272 42.71 146.518 42.674 146.77 42.614C147.022 42.542 147.238 42.422 147.418 42.254C147.598 42.074 147.688 41.816 147.688 41.48C147.688 41.18 147.592 40.94 147.4 40.76C147.208 40.58 146.956 40.436 146.644 40.328C146.332 40.208 145.996 40.1 145.636 40.004C145.252 39.896 144.862 39.776 144.466 39.644C144.082 39.512 143.734 39.344 143.422 39.14C143.11 38.924 142.852 38.648 142.648 38.312C142.456 37.976 142.36 37.562 142.36 37.07C142.36 36.506 142.516 36.02 142.828 35.612C143.152 35.204 143.566 34.886 144.07 34.658C144.586 34.43 145.144 34.316 145.744 34.316C146.092 34.316 146.458 34.364 146.842 34.46C147.226 34.544 147.598 34.682 147.958 34.874C148.318 35.066 148.63 35.318 148.894 35.63C149.014 35.786 149.08 35.972 149.092 36.188C149.116 36.404 149.02 36.596 148.804 36.764C148.66 36.884 148.486 36.938 148.282 36.926C148.078 36.914 147.91 36.848 147.778 36.728C147.55 36.44 147.256 36.218 146.896 36.062C146.536 35.894 146.128 35.81 145.672 35.81C145.444 35.81 145.204 35.846 144.952 35.918C144.712 35.978 144.508 36.092 144.34 36.26C144.172 36.428 144.088 36.674 144.088 36.998C144.088 37.298 144.184 37.538 144.376 37.718C144.58 37.898 144.844 38.048 145.168 38.168C145.492 38.288 145.846 38.396 146.23 38.492C146.602 38.588 146.968 38.702 147.328 38.834C147.7 38.966 148.03 39.14 148.318 39.356C148.618 39.56 148.858 39.83 149.038 40.166C149.23 40.49 149.326 40.904 149.326 41.408C149.326 41.996 149.152 42.5 148.804 42.92C148.468 43.328 148.036 43.64 147.508 43.856C146.992 44.072 146.446 44.18 145.87 44.18C145.186 44.18 144.502 44.06 143.818 43.82C143.146 43.568 142.576 43.136 142.108 42.524Z" fill="white"/>
<path d="M200.212 44C199.936 44 199.708 43.916 199.528 43.748C199.348 43.568 199.258 43.346 199.258 43.082V33.434L199.492 33.758L197.818 34.928C197.674 35.048 197.5 35.108 197.296 35.108C197.056 35.108 196.84 35.018 196.648 34.838C196.468 34.646 196.378 34.424 196.378 34.172C196.378 33.86 196.534 33.602 196.846 33.398L199.582 31.58C199.69 31.508 199.804 31.46 199.924 31.436C200.056 31.412 200.176 31.4 200.284 31.4C200.56 31.4 200.782 31.49 200.95 31.67C201.118 31.838 201.202 32.054 201.202 32.318V43.082C201.202 43.346 201.106 43.568 200.914 43.748C200.734 43.916 200.5 44 200.212 44ZM206.365 44.072C206.113 44.072 205.891 43.994 205.699 43.838C205.519 43.67 205.429 43.46 205.429 43.208C205.429 43.076 205.459 42.938 205.519 42.794L210.055 32.768L210.253 33.164H204.745C204.505 33.164 204.301 33.086 204.133 32.93C203.977 32.762 203.899 32.558 203.899 32.318C203.899 32.09 203.977 31.898 204.133 31.742C204.301 31.586 204.505 31.508 204.745 31.508H211.135C211.399 31.508 211.621 31.592 211.801 31.76C211.993 31.916 212.089 32.12 212.089 32.372C212.089 32.516 212.059 32.654 211.999 32.786L207.193 43.496C207.121 43.676 207.007 43.82 206.851 43.928C206.695 44.024 206.533 44.072 206.365 44.072ZM213.29 43.982C212.99 43.982 212.756 43.898 212.588 43.73C212.432 43.562 212.354 43.328 212.354 43.028V42.704C212.354 42.404 212.432 42.17 212.588 42.002C212.756 41.834 212.99 41.75 213.29 41.75H213.488C213.788 41.75 214.016 41.834 214.172 42.002C214.328 42.17 214.406 42.404 214.406 42.704V43.028C214.406 43.328 214.328 43.562 214.172 43.73C214.016 43.898 213.788 43.982 213.488 43.982H213.29ZM219.708 44.126C219.24 44.126 218.754 44.054 218.25 43.91C217.758 43.766 217.338 43.55 216.99 43.262C216.858 43.154 216.756 43.016 216.684 42.848C216.612 42.68 216.576 42.518 216.576 42.362C216.576 42.194 216.648 42.032 216.792 41.876C216.948 41.708 217.158 41.624 217.422 41.624C217.614 41.624 217.836 41.72 218.088 41.912C218.328 42.068 218.58 42.2 218.844 42.308C219.12 42.416 219.402 42.47 219.69 42.47C220.314 42.47 220.854 42.356 221.31 42.128C221.766 41.9 222.114 41.582 222.354 41.174C222.606 40.754 222.732 40.268 222.732 39.716C222.732 39.2 222.618 38.762 222.39 38.402C222.162 38.03 221.85 37.742 221.454 37.538C221.07 37.334 220.638 37.232 220.158 37.232C219.762 37.232 219.414 37.298 219.114 37.43C218.814 37.55 218.544 37.676 218.304 37.808C218.064 37.928 217.842 37.988 217.638 37.988C217.326 37.988 217.092 37.922 216.936 37.79C216.78 37.646 216.678 37.478 216.63 37.286C216.594 37.082 216.588 36.896 216.612 36.728L217.242 32.21C217.278 32.006 217.374 31.838 217.53 31.706C217.698 31.562 217.902 31.49 218.142 31.49H223.416C223.656 31.49 223.854 31.574 224.01 31.742C224.178 31.898 224.262 32.096 224.262 32.336C224.262 32.576 224.178 32.774 224.01 32.93C223.854 33.086 223.656 33.164 223.416 33.164H218.592L218.79 33.002L218.214 36.872L217.944 36.332C218.052 36.212 218.232 36.098 218.484 35.99C218.748 35.87 219.042 35.774 219.366 35.702C219.702 35.618 220.038 35.576 220.374 35.576C221.166 35.576 221.874 35.756 222.498 36.116C223.134 36.464 223.632 36.95 223.992 37.574C224.352 38.198 224.532 38.906 224.532 39.698C224.532 40.586 224.334 41.366 223.938 42.038C223.542 42.698 222.984 43.214 222.264 43.586C221.544 43.946 220.692 44.126 219.708 44.126ZM227.474 41.696C227.57 41.696 227.672 41.714 227.78 41.75C227.888 41.774 228.008 41.834 228.14 41.93C228.356 42.122 228.614 42.284 228.914 42.416C229.226 42.536 229.58 42.596 229.976 42.596C230.42 42.596 230.834 42.494 231.218 42.29C231.602 42.074 231.914 41.774 232.154 41.39C232.394 41.006 232.514 40.55 232.514 40.022C232.514 39.482 232.4 39.044 232.172 38.708C231.944 38.36 231.65 38.102 231.29 37.934C230.93 37.754 230.552 37.664 230.156 37.664C229.928 37.664 229.736 37.688 229.58 37.736C229.424 37.772 229.274 37.814 229.13 37.862C228.986 37.898 228.83 37.916 228.662 37.916C228.434 37.916 228.254 37.838 228.122 37.682C227.99 37.514 227.924 37.316 227.924 37.088C227.924 36.944 227.954 36.818 228.014 36.71C228.074 36.602 228.158 36.482 228.266 36.35L231.596 32.786L231.992 33.146H227.222C226.982 33.146 226.778 33.068 226.61 32.912C226.454 32.744 226.376 32.54 226.376 32.3C226.376 32.072 226.454 31.88 226.61 31.724C226.778 31.568 226.982 31.49 227.222 31.49H232.91C233.222 31.49 233.45 31.58 233.594 31.76C233.75 31.94 233.828 32.15 233.828 32.39C233.828 32.522 233.792 32.648 233.72 32.768C233.66 32.888 233.582 33.002 233.486 33.11L230.138 36.71L229.688 36.224C229.784 36.176 229.946 36.128 230.174 36.08C230.402 36.032 230.588 36.008 230.732 36.008C231.416 36.008 232.028 36.182 232.568 36.53C233.12 36.878 233.546 37.346 233.846 37.934C234.158 38.51 234.314 39.164 234.314 39.896C234.314 40.772 234.116 41.534 233.72 42.182C233.324 42.818 232.772 43.31 232.064 43.658C231.368 44.006 230.564 44.18 229.652 44.18C229.196 44.18 228.74 44.12 228.284 44C227.84 43.868 227.456 43.682 227.132 43.442C226.928 43.322 226.79 43.196 226.718 43.064C226.646 42.92 226.61 42.782 226.61 42.65C226.61 42.422 226.688 42.206 226.844 42.002C227.012 41.798 227.222 41.696 227.474 41.696ZM242.585 31.4H248.813C249.065 31.4 249.275 31.484 249.443 31.652C249.623 31.82 249.713 32.03 249.713 32.282C249.713 32.534 249.623 32.738 249.443 32.894C249.275 33.05 249.065 33.128 248.813 33.128H243.377L243.557 32.822V36.854L243.395 36.674H248.003C248.255 36.674 248.465 36.758 248.633 36.926C248.813 37.094 248.903 37.31 248.903 37.574C248.903 37.826 248.813 38.03 248.633 38.186C248.465 38.342 248.255 38.42 248.003 38.42H243.431L243.557 38.258V42.416L243.431 42.272H248.813C249.065 42.272 249.275 42.362 249.443 42.542C249.623 42.71 249.713 42.908 249.713 43.136C249.713 43.388 249.623 43.598 249.443 43.766C249.275 43.922 249.065 44 248.813 44H242.585C242.333 44 242.117 43.916 241.937 43.748C241.757 43.568 241.667 43.346 241.667 43.082V32.318C241.667 32.054 241.757 31.838 241.937 31.67C242.117 31.49 242.333 31.4 242.585 31.4ZM256.054 44C255.766 44 255.532 43.916 255.352 43.748C255.184 43.568 255.1 43.346 255.1 43.082V32.3H257.026V43.082C257.026 43.346 256.93 43.568 256.738 43.748C256.558 43.916 256.33 44 256.054 44ZM251.968 33.128C251.716 33.128 251.5 33.05 251.32 32.894C251.14 32.726 251.05 32.51 251.05 32.246C251.05 31.994 251.14 31.79 251.32 31.634C251.5 31.478 251.716 31.4 251.968 31.4H260.158C260.41 31.4 260.62 31.484 260.788 31.652C260.968 31.808 261.058 32.012 261.058 32.264C261.058 32.528 260.968 32.738 260.788 32.894C260.62 33.05 260.41 33.128 260.158 33.128H251.968ZM264.067 31.4C264.307 31.4 264.517 31.49 264.697 31.67C264.889 31.838 264.985 32.054 264.985 32.318V43.082C264.973 43.346 264.871 43.568 264.679 43.748C264.499 43.916 264.283 44 264.031 44C263.755 44 263.527 43.916 263.347 43.748C263.179 43.568 263.095 43.346 263.095 43.082V32.318C263.095 32.054 263.185 31.838 263.365 31.67C263.545 31.49 263.779 31.4 264.067 31.4ZM272.185 31.4C272.473 31.4 272.701 31.49 272.869 31.67C273.037 31.838 273.121 32.054 273.121 32.318V43.082C273.121 43.346 273.031 43.568 272.851 43.748C272.683 43.916 272.455 44 272.167 44C271.915 44 271.699 43.916 271.519 43.748C271.339 43.568 271.249 43.346 271.249 43.082V32.318C271.249 32.054 271.339 31.838 271.519 31.67C271.711 31.49 271.933 31.4 272.185 31.4ZM263.995 36.764H272.203L272.185 38.492H263.977L263.995 36.764Z" fill="white"/>
<path d="M35.708 68C35.516 68 35.36 67.944 35.24 67.832C35.128 67.712 35.072 67.564 35.072 67.388V60.2H36.356V67.388C36.356 67.564 36.292 67.712 36.164 67.832C36.044 67.944 35.892 68 35.708 68ZM32.984 60.752C32.816 60.752 32.672 60.7 32.552 60.596C32.432 60.484 32.372 60.34 32.372 60.164C32.372 59.996 32.432 59.86 32.552 59.756C32.672 59.652 32.816 59.6 32.984 59.6H38.444C38.612 59.6 38.752 59.656 38.864 59.768C38.984 59.872 39.044 60.008 39.044 60.176C39.044 60.352 38.984 60.492 38.864 60.596C38.752 60.7 38.612 60.752 38.444 60.752H32.984ZM41.3977 67.388C41.3977 67.564 41.3417 67.712 41.2297 67.832C41.1177 67.944 40.9737 68 40.7977 68C40.6297 68 40.4857 67.944 40.3657 67.832C40.2537 67.712 40.1977 67.564 40.1977 67.388V62.252C40.1977 62.076 40.2537 61.932 40.3657 61.82C40.4857 61.7 40.6297 61.64 40.7977 61.64C40.9737 61.64 41.1177 61.7 41.2297 61.82C41.3417 61.932 41.3977 62.076 41.3977 62.252V67.388ZM40.7857 60.848C40.5537 60.848 40.3857 60.808 40.2817 60.728C40.1777 60.64 40.1257 60.496 40.1257 60.296V60.104C40.1257 59.904 40.1817 59.764 40.2937 59.684C40.4057 59.604 40.5737 59.564 40.7977 59.564C41.0377 59.564 41.2097 59.608 41.3137 59.696C41.4177 59.776 41.4697 59.912 41.4697 60.104V60.296C41.4697 60.504 41.4137 60.648 41.3017 60.728C41.1977 60.808 41.0257 60.848 40.7857 60.848ZM46.1799 61.58C46.7719 61.58 47.2279 61.728 47.5479 62.024C47.8679 62.312 48.0799 62.704 48.1839 63.2L47.9919 63.14L48.0759 62.948C48.1799 62.74 48.3359 62.532 48.5439 62.324C48.7599 62.108 49.0159 61.932 49.3119 61.796C49.6079 61.652 49.9239 61.58 50.2599 61.58C50.8119 61.58 51.2399 61.7 51.5439 61.94C51.8479 62.172 52.0599 62.488 52.1799 62.888C52.2999 63.28 52.3599 63.72 52.3599 64.208V67.388C52.3599 67.564 52.3039 67.712 52.1919 67.832C52.0799 67.944 51.9359 68 51.7599 68C51.5919 68 51.4479 67.944 51.3279 67.832C51.2159 67.712 51.1599 67.564 51.1599 67.388V64.22C51.1599 63.94 51.1199 63.684 51.0399 63.452C50.9679 63.22 50.8359 63.036 50.6439 62.9C50.4599 62.756 50.2039 62.684 49.8759 62.684C49.5639 62.684 49.2839 62.756 49.0359 62.9C48.7959 63.036 48.6079 63.22 48.4719 63.452C48.3359 63.684 48.2679 63.94 48.2679 64.22V67.388C48.2679 67.564 48.2119 67.712 48.0999 67.832C47.9879 67.944 47.8439 68 47.6679 68C47.4919 68 47.3479 67.944 47.2359 67.832C47.1239 67.712 47.0679 67.564 47.0679 67.388V64.208C47.0679 63.928 47.0279 63.672 46.9479 63.44C46.8759 63.208 46.7479 63.024 46.5639 62.888C46.3799 62.752 46.1239 62.684 45.7959 62.684C45.4839 62.684 45.2079 62.752 44.9679 62.888C44.7279 63.024 44.5399 63.208 44.4039 63.44C44.2759 63.672 44.2119 63.928 44.2119 64.208V67.388C44.2119 67.564 44.1519 67.712 44.0319 67.832C43.9199 67.944 43.7799 68 43.6119 68C43.4359 68 43.2919 67.944 43.1799 67.832C43.0679 67.712 43.0119 67.564 43.0119 67.388V62.3C43.0119 62.124 43.0679 61.98 43.1799 61.868C43.2919 61.748 43.4359 61.688 43.6119 61.688C43.7799 61.688 43.9199 61.748 44.0319 61.868C44.1519 61.98 44.2119 62.124 44.2119 62.3V63.008L43.9839 63.14C44.0399 62.964 44.1319 62.784 44.2599 62.6C44.3879 62.416 44.5479 62.248 44.7399 62.096C44.9399 61.944 45.1599 61.82 45.3999 61.724C45.6399 61.628 45.8999 61.58 46.1799 61.58ZM56.9792 68.12C56.3152 68.12 55.7392 67.984 55.2512 67.712C54.7632 67.432 54.3832 67.052 54.1112 66.572C53.8472 66.084 53.7152 65.528 53.7152 64.904C53.7152 64.2 53.8552 63.6 54.1352 63.104C54.4232 62.6 54.7952 62.216 55.2512 61.952C55.7072 61.68 56.1912 61.544 56.7032 61.544C57.0952 61.544 57.4672 61.624 57.8192 61.784C58.1712 61.936 58.4832 62.152 58.7552 62.432C59.0352 62.704 59.2552 63.028 59.4152 63.404C59.5752 63.772 59.6592 64.176 59.6672 64.616C59.6592 64.776 59.5952 64.908 59.4752 65.012C59.3552 65.116 59.2152 65.168 59.0552 65.168H54.3872L54.0992 64.148H58.6112L58.3832 64.364V64.064C58.3672 63.784 58.2752 63.54 58.1072 63.332C57.9392 63.116 57.7312 62.952 57.4832 62.84C57.2352 62.72 56.9752 62.66 56.7032 62.66C56.4632 62.66 56.2312 62.7 56.0072 62.78C55.7912 62.852 55.5952 62.972 55.4192 63.14C55.2512 63.308 55.1152 63.532 55.0112 63.812C54.9152 64.084 54.8672 64.424 54.8672 64.832C54.8672 65.272 54.9592 65.656 55.1432 65.984C55.3272 66.312 55.5752 66.568 55.8872 66.752C56.1992 66.928 56.5432 67.016 56.9192 67.016C57.2152 67.016 57.4592 66.988 57.6512 66.932C57.8432 66.868 58.0032 66.792 58.1312 66.704C58.2592 66.616 58.3712 66.532 58.4672 66.452C58.5872 66.38 58.7072 66.344 58.8272 66.344C58.9712 66.344 59.0912 66.396 59.1872 66.5C59.2832 66.596 59.3312 66.712 59.3312 66.848C59.3312 67.024 59.2432 67.184 59.0672 67.328C58.8512 67.536 58.5512 67.72 58.1672 67.88C57.7912 68.04 57.3952 68.12 56.9792 68.12ZM65.2154 68C65.0234 68 64.8554 67.944 64.7114 67.832C64.5674 67.712 64.4954 67.564 64.4954 67.388V60.212C64.4954 60.036 64.5554 59.892 64.6754 59.78C64.7954 59.66 64.9394 59.6 65.1074 59.6H68.4914C68.9234 59.6 69.3194 59.708 69.6794 59.924C70.0394 60.132 70.3274 60.424 70.5434 60.8C70.7674 61.168 70.8794 61.592 70.8794 62.072C70.8794 62.392 70.8154 62.7 70.6874 62.996C70.5594 63.284 70.3874 63.54 70.1714 63.764C69.9554 63.988 69.7114 64.156 69.4394 64.268L69.3074 64.04C69.5554 64.128 69.7714 64.256 69.9554 64.424C70.1394 64.584 70.2834 64.776 70.3874 65C70.4994 65.216 70.5594 65.464 70.5674 65.744C70.5914 65.992 70.6114 66.2 70.6274 66.368C70.6514 66.528 70.6834 66.66 70.7234 66.764C70.7634 66.868 70.8354 66.948 70.9394 67.004C71.0834 67.084 71.1714 67.204 71.2034 67.364C71.2434 67.524 71.2114 67.668 71.1074 67.796C71.0354 67.892 70.9434 67.956 70.8314 67.988C70.7274 68.012 70.6194 68.016 70.5074 68C70.3954 67.976 70.2994 67.944 70.2194 67.904C70.0914 67.824 69.9594 67.712 69.8234 67.568C69.6954 67.416 69.5914 67.208 69.5114 66.944C69.4314 66.68 69.3914 66.332 69.3914 65.9C69.3914 65.7 69.3594 65.528 69.2954 65.384C69.2314 65.24 69.1434 65.124 69.0314 65.036C68.9194 64.94 68.7874 64.872 68.6354 64.832C68.4834 64.784 68.3154 64.76 68.1314 64.76H65.5874L65.7554 64.52V67.388C65.7554 67.564 65.7074 67.712 65.6114 67.832C65.5154 67.944 65.3834 68 65.2154 68ZM65.5994 63.716H68.4674C68.6514 63.708 68.8274 63.636 68.9954 63.5C69.1714 63.356 69.3114 63.164 69.4154 62.924C69.5274 62.684 69.5834 62.412 69.5834 62.108C69.5834 61.724 69.4674 61.404 69.2354 61.148C69.0114 60.884 68.7434 60.752 68.4314 60.752H65.6234L65.7554 60.44V63.968L65.5994 63.716ZM75.4128 68.12C74.7488 68.12 74.1728 67.984 73.6848 67.712C73.1968 67.432 72.8168 67.052 72.5448 66.572C72.2808 66.084 72.1488 65.528 72.1488 64.904C72.1488 64.2 72.2888 63.6 72.5688 63.104C72.8568 62.6 73.2288 62.216 73.6848 61.952C74.1408 61.68 74.6248 61.544 75.1368 61.544C75.5288 61.544 75.9008 61.624 76.2528 61.784C76.6048 61.936 76.9168 62.152 77.1888 62.432C77.4688 62.704 77.6888 63.028 77.8488 63.404C78.0088 63.772 78.0928 64.176 78.1008 64.616C78.0928 64.776 78.0288 64.908 77.9088 65.012C77.7888 65.116 77.6488 65.168 77.4888 65.168H72.8208L72.5328 64.148H77.0448L76.8168 64.364V64.064C76.8008 63.784 76.7088 63.54 76.5408 63.332C76.3728 63.116 76.1648 62.952 75.9168 62.84C75.6688 62.72 75.4088 62.66 75.1368 62.66C74.8968 62.66 74.6648 62.7 74.4408 62.78C74.2248 62.852 74.0288 62.972 73.8528 63.14C73.6848 63.308 73.5488 63.532 73.4448 63.812C73.3488 64.084 73.3008 64.424 73.3008 64.832C73.3008 65.272 73.3928 65.656 73.5768 65.984C73.7608 66.312 74.0088 66.568 74.3208 66.752C74.6328 66.928 74.9768 67.016 75.3528 67.016C75.6488 67.016 75.8928 66.988 76.0848 66.932C76.2768 66.868 76.4368 66.792 76.5648 66.704C76.6928 66.616 76.8048 66.532 76.9008 66.452C77.0208 66.38 77.1408 66.344 77.2608 66.344C77.4048 66.344 77.5248 66.396 77.6208 66.5C77.7168 66.596 77.7648 66.712 77.7648 66.848C77.7648 67.024 77.6768 67.184 77.5008 67.328C77.2848 67.536 76.9848 67.72 76.6008 67.88C76.2248 68.04 75.8288 68.12 75.4128 68.12ZM84.6761 61.592C84.8521 61.592 84.9961 61.652 85.1081 61.772C85.2201 61.884 85.2761 62.028 85.2761 62.204V67.388C85.2761 67.564 85.2201 67.712 85.1081 67.832C84.9961 67.944 84.8521 68 84.6761 68C84.5081 68 84.3641 67.944 84.2441 67.832C84.1321 67.712 84.0761 67.564 84.0761 67.388V66.524L84.3281 66.56C84.3281 66.704 84.2681 66.864 84.1481 67.04C84.0361 67.216 83.8801 67.388 83.6801 67.556C83.4801 67.716 83.2441 67.852 82.9721 67.964C82.7001 68.068 82.4081 68.12 82.0961 68.12C81.5441 68.12 81.0481 67.98 80.6081 67.7C80.1681 67.412 79.8201 67.02 79.5641 66.524C79.3081 66.028 79.1801 65.464 79.1801 64.832C79.1801 64.184 79.3081 63.616 79.5641 63.128C79.8201 62.632 80.1641 62.244 80.5961 61.964C81.0361 61.684 81.5241 61.544 82.0601 61.544C82.4041 61.544 82.7201 61.6 83.0081 61.712C83.3041 61.824 83.5601 61.968 83.7761 62.144C83.9921 62.32 84.1561 62.508 84.2681 62.708C84.3881 62.9 84.4481 63.084 84.4481 63.26L84.0761 63.296V62.204C84.0761 62.036 84.1321 61.892 84.2441 61.772C84.3641 61.652 84.5081 61.592 84.6761 61.592ZM82.2281 67.016C82.6041 67.016 82.9361 66.92 83.2241 66.728C83.5121 66.536 83.7361 66.276 83.8961 65.948C84.0561 65.612 84.1361 65.24 84.1361 64.832C84.1361 64.416 84.0561 64.044 83.8961 63.716C83.7361 63.388 83.5121 63.128 83.2241 62.936C82.9361 62.744 82.6041 62.648 82.2281 62.648C81.8601 62.648 81.5321 62.744 81.2441 62.936C80.9641 63.128 80.7401 63.388 80.5721 63.716C80.4121 64.044 80.3321 64.416 80.3321 64.832C80.3321 65.24 80.4121 65.612 80.5721 65.948C80.7401 66.276 80.9641 66.536 81.2441 66.728C81.5321 66.92 81.8601 67.016 82.2281 67.016ZM90.1252 61.58C90.7172 61.58 91.1732 61.728 91.4932 62.024C91.8132 62.312 92.0252 62.704 92.1292 63.2L91.9372 63.14L92.0212 62.948C92.1252 62.74 92.2812 62.532 92.4892 62.324C92.7052 62.108 92.9612 61.932 93.2572 61.796C93.5532 61.652 93.8692 61.58 94.2052 61.58C94.7572 61.58 95.1852 61.7 95.4892 61.94C95.7932 62.172 96.0052 62.488 96.1252 62.888C96.2452 63.28 96.3052 63.72 96.3052 64.208V67.388C96.3052 67.564 96.2492 67.712 96.1372 67.832C96.0252 67.944 95.8812 68 95.7052 68C95.5372 68 95.3932 67.944 95.2732 67.832C95.1612 67.712 95.1052 67.564 95.1052 67.388V64.22C95.1052 63.94 95.0652 63.684 94.9852 63.452C94.9132 63.22 94.7812 63.036 94.5892 62.9C94.4052 62.756 94.1492 62.684 93.8212 62.684C93.5092 62.684 93.2292 62.756 92.9812 62.9C92.7412 63.036 92.5532 63.22 92.4172 63.452C92.2812 63.684 92.2132 63.94 92.2132 64.22V67.388C92.2132 67.564 92.1572 67.712 92.0452 67.832C91.9332 67.944 91.7892 68 91.6132 68C91.4372 68 91.2932 67.944 91.1812 67.832C91.0692 67.712 91.0132 67.564 91.0132 67.388V64.208C91.0132 63.928 90.9732 63.672 90.8932 63.44C90.8212 63.208 90.6932 63.024 90.5092 62.888C90.3252 62.752 90.0692 62.684 89.7412 62.684C89.4292 62.684 89.1532 62.752 88.9132 62.888C88.6732 63.024 88.4852 63.208 88.3492 63.44C88.2212 63.672 88.1572 63.928 88.1572 64.208V67.388C88.1572 67.564 88.0972 67.712 87.9772 67.832C87.8652 67.944 87.7252 68 87.5572 68C87.3812 68 87.2372 67.944 87.1252 67.832C87.0132 67.712 86.9572 67.564 86.9572 67.388V62.3C86.9572 62.124 87.0132 61.98 87.1252 61.868C87.2372 61.748 87.3812 61.688 87.5572 61.688C87.7252 61.688 87.8652 61.748 87.9772 61.868C88.0972 61.98 88.1572 62.124 88.1572 62.3V63.008L87.9292 63.14C87.9852 62.964 88.0772 62.784 88.2052 62.6C88.3332 62.416 88.4932 62.248 88.6852 62.096C88.8852 61.944 89.1052 61.82 89.3452 61.724C89.5852 61.628 89.8452 61.58 90.1252 61.58ZM99.1125 67.388C99.1125 67.564 99.0565 67.712 98.9445 67.832C98.8325 67.944 98.6885 68 98.5125 68C98.3445 68 98.2005 67.944 98.0805 67.832C97.9685 67.712 97.9125 67.564 97.9125 67.388V62.252C97.9125 62.076 97.9685 61.932 98.0805 61.82C98.2005 61.7 98.3445 61.64 98.5125 61.64C98.6885 61.64 98.8325 61.7 98.9445 61.82C99.0565 61.932 99.1125 62.076 99.1125 62.252V67.388ZM98.5005 60.848C98.2685 60.848 98.1005 60.808 97.9965 60.728C97.8925 60.64 97.8405 60.496 97.8405 60.296V60.104C97.8405 59.904 97.8965 59.764 98.0085 59.684C98.1205 59.604 98.2885 59.564 98.5125 59.564C98.7525 59.564 98.9245 59.608 99.0285 59.696C99.1325 59.776 99.1845 59.912 99.1845 60.104V60.296C99.1845 60.504 99.1285 60.648 99.0165 60.728C98.9125 60.808 98.7405 60.848 98.5005 60.848ZM103.979 61.544C104.547 61.544 104.987 61.664 105.299 61.904C105.611 62.136 105.827 62.452 105.947 62.852C106.075 63.244 106.139 63.684 106.139 64.172V67.388C106.139 67.564 106.079 67.712 105.959 67.832C105.847 67.944 105.707 68 105.539 68C105.363 68 105.219 67.944 105.107 67.832C104.995 67.712 104.939 67.564 104.939 67.388V64.184C104.939 63.896 104.899 63.64 104.819 63.416C104.739 63.184 104.599 63 104.399 62.864C104.207 62.72 103.935 62.648 103.583 62.648C103.255 62.648 102.967 62.72 102.719 62.864C102.471 63 102.275 63.184 102.131 63.416C101.995 63.64 101.927 63.896 101.927 64.184V67.388C101.927 67.564 101.867 67.712 101.747 67.832C101.635 67.944 101.495 68 101.327 68C101.151 68 101.007 67.944 100.895 67.832C100.783 67.712 100.727 67.564 100.727 67.388V62.3C100.727 62.124 100.783 61.98 100.895 61.868C101.007 61.748 101.151 61.688 101.327 61.688C101.495 61.688 101.635 61.748 101.747 61.868C101.867 61.98 101.927 62.124 101.927 62.3V62.972L101.711 63.092C101.767 62.916 101.863 62.74 101.999 62.564C102.143 62.38 102.315 62.212 102.515 62.06C102.715 61.9 102.939 61.776 103.187 61.688C103.435 61.592 103.699 61.544 103.979 61.544ZM108.933 67.388C108.933 67.564 108.877 67.712 108.765 67.832C108.653 67.944 108.509 68 108.333 68C108.165 68 108.021 67.944 107.901 67.832C107.789 67.712 107.733 67.564 107.733 67.388V62.252C107.733 62.076 107.789 61.932 107.901 61.82C108.021 61.7 108.165 61.64 108.333 61.64C108.509 61.64 108.653 61.7 108.765 61.82C108.877 61.932 108.933 62.076 108.933 62.252V67.388ZM108.321 60.848C108.089 60.848 107.921 60.808 107.817 60.728C107.713 60.64 107.661 60.496 107.661 60.296V60.104C107.661 59.904 107.717 59.764 107.829 59.684C107.941 59.604 108.109 59.564 108.333 59.564C108.573 59.564 108.745 59.608 108.849 59.696C108.953 59.776 109.005 59.912 109.005 60.104V60.296C109.005 60.504 108.949 60.648 108.837 60.728C108.733 60.808 108.561 60.848 108.321 60.848ZM113.799 61.544C114.367 61.544 114.807 61.664 115.119 61.904C115.431 62.136 115.647 62.452 115.767 62.852C115.895 63.244 115.959 63.684 115.959 64.172V67.388C115.959 67.564 115.899 67.712 115.779 67.832C115.667 67.944 115.527 68 115.359 68C115.183 68 115.039 67.944 114.927 67.832C114.815 67.712 114.759 67.564 114.759 67.388V64.184C114.759 63.896 114.719 63.64 114.639 63.416C114.559 63.184 114.419 63 114.219 62.864C114.027 62.72 113.755 62.648 113.403 62.648C113.075 62.648 112.787 62.72 112.539 62.864C112.291 63 112.095 63.184 111.951 63.416C111.815 63.64 111.747 63.896 111.747 64.184V67.388C111.747 67.564 111.687 67.712 111.567 67.832C111.455 67.944 111.315 68 111.147 68C110.971 68 110.827 67.944 110.715 67.832C110.603 67.712 110.547 67.564 110.547 67.388V62.3C110.547 62.124 110.603 61.98 110.715 61.868C110.827 61.748 110.971 61.688 111.147 61.688C111.315 61.688 111.455 61.748 111.567 61.868C111.687 61.98 111.747 62.124 111.747 62.3V62.972L111.531 63.092C111.587 62.916 111.683 62.74 111.819 62.564C111.963 62.38 112.135 62.212 112.335 62.06C112.535 61.9 112.759 61.776 113.007 61.688C113.255 61.592 113.519 61.544 113.799 61.544ZM120.253 61.544C120.597 61.544 120.913 61.6 121.201 61.712C121.489 61.824 121.737 61.968 121.945 62.144C122.161 62.312 122.329 62.488 122.449 62.672C122.569 62.856 122.629 63.016 122.629 63.152L122.353 63.164V62.204C122.353 62.036 122.409 61.892 122.521 61.772C122.633 61.652 122.777 61.592 122.953 61.592C123.129 61.592 123.273 61.652 123.385 61.772C123.497 61.884 123.553 62.028 123.553 62.204V67.496C123.553 68.176 123.409 68.728 123.121 69.152C122.833 69.584 122.449 69.9 121.969 70.1C121.497 70.3 120.977 70.4 120.409 70.4C120.209 70.4 119.973 70.372 119.701 70.316C119.429 70.268 119.177 70.208 118.945 70.136C118.721 70.064 118.565 69.992 118.477 69.92C118.293 69.824 118.169 69.712 118.105 69.584C118.049 69.456 118.049 69.328 118.105 69.2C118.185 69.024 118.293 68.916 118.429 68.876C118.565 68.836 118.721 68.848 118.897 68.912C118.977 68.936 119.101 68.98 119.269 69.044C119.437 69.108 119.625 69.164 119.833 69.212C120.041 69.268 120.237 69.296 120.421 69.296C121.061 69.296 121.541 69.148 121.861 68.852C122.189 68.556 122.353 68.152 122.353 67.64V66.56L122.485 66.644C122.461 66.812 122.385 66.984 122.257 67.16C122.137 67.328 121.977 67.484 121.777 67.628C121.577 67.772 121.345 67.892 121.081 67.988C120.825 68.076 120.561 68.12 120.289 68.12C119.721 68.12 119.213 67.98 118.765 67.7C118.317 67.412 117.961 67.024 117.697 66.536C117.433 66.04 117.301 65.472 117.301 64.832C117.301 64.192 117.433 63.628 117.697 63.14C117.961 62.644 118.313 62.256 118.753 61.976C119.201 61.688 119.701 61.544 120.253 61.544ZM120.433 62.648C120.041 62.648 119.697 62.744 119.401 62.936C119.105 63.128 118.873 63.388 118.705 63.716C118.537 64.044 118.453 64.416 118.453 64.832C118.453 65.248 118.537 65.62 118.705 65.948C118.873 66.276 119.105 66.536 119.401 66.728C119.697 66.92 120.041 67.016 120.433 67.016C120.825 67.016 121.169 66.924 121.465 66.74C121.761 66.548 121.993 66.288 122.161 65.96C122.329 65.624 122.413 65.248 122.413 64.832C122.413 64.416 122.329 64.044 122.161 63.716C121.993 63.38 121.761 63.12 121.465 62.936C121.169 62.744 120.825 62.648 120.433 62.648Z" fill="white"/>
<path d="M197.62 59.6C197.78 59.6 197.92 59.66 198.04 59.78C198.168 59.892 198.232 60.036 198.232 60.212V67.388C198.224 67.564 198.156 67.712 198.028 67.832C197.908 67.944 197.764 68 197.596 68C197.412 68 197.26 67.944 197.14 67.832C197.028 67.712 196.972 67.564 196.972 67.388V60.212C196.972 60.036 197.032 59.892 197.152 59.78C197.272 59.66 197.428 59.6 197.62 59.6ZM203.032 59.6C203.224 59.6 203.376 59.66 203.488 59.78C203.6 59.892 203.656 60.036 203.656 60.212V67.388C203.656 67.564 203.596 67.712 203.476 67.832C203.364 67.944 203.212 68 203.02 68C202.852 68 202.708 67.944 202.588 67.832C202.468 67.712 202.408 67.564 202.408 67.388V60.212C202.408 60.036 202.468 59.892 202.588 59.78C202.716 59.66 202.864 59.6 203.032 59.6ZM197.572 63.176H203.044L203.032 64.328H197.56L197.572 63.176ZM206.593 67.388C206.593 67.564 206.537 67.712 206.425 67.832C206.313 67.944 206.169 68 205.993 68C205.825 68 205.681 67.944 205.561 67.832C205.449 67.712 205.393 67.564 205.393 67.388V62.252C205.393 62.076 205.449 61.932 205.561 61.82C205.681 61.7 205.825 61.64 205.993 61.64C206.169 61.64 206.313 61.7 206.425 61.82C206.537 61.932 206.593 62.076 206.593 62.252V67.388ZM205.981 60.848C205.749 60.848 205.581 60.808 205.477 60.728C205.373 60.64 205.321 60.496 205.321 60.296V60.104C205.321 59.904 205.377 59.764 205.489 59.684C205.601 59.604 205.769 59.564 205.993 59.564C206.233 59.564 206.405 59.608 206.509 59.696C206.613 59.776 206.665 59.912 206.665 60.104V60.296C206.665 60.504 206.609 60.648 206.497 60.728C206.393 60.808 206.221 60.848 205.981 60.848ZM210.835 61.544C211.179 61.544 211.495 61.6 211.783 61.712C212.071 61.824 212.319 61.968 212.527 62.144C212.743 62.312 212.911 62.488 213.031 62.672C213.151 62.856 213.211 63.016 213.211 63.152L212.935 63.164V62.204C212.935 62.036 212.991 61.892 213.103 61.772C213.215 61.652 213.359 61.592 213.535 61.592C213.711 61.592 213.855 61.652 213.967 61.772C214.079 61.884 214.135 62.028 214.135 62.204V67.496C214.135 68.176 213.991 68.728 213.703 69.152C213.415 69.584 213.031 69.9 212.551 70.1C212.079 70.3 211.559 70.4 210.991 70.4C210.791 70.4 210.555 70.372 210.283 70.316C210.011 70.268 209.759 70.208 209.527 70.136C209.303 70.064 209.147 69.992 209.059 69.92C208.875 69.824 208.751 69.712 208.687 69.584C208.631 69.456 208.631 69.328 208.687 69.2C208.767 69.024 208.875 68.916 209.011 68.876C209.147 68.836 209.303 68.848 209.479 68.912C209.559 68.936 209.683 68.98 209.851 69.044C210.019 69.108 210.207 69.164 210.415 69.212C210.623 69.268 210.819 69.296 211.003 69.296C211.643 69.296 212.123 69.148 212.443 68.852C212.771 68.556 212.935 68.152 212.935 67.64V66.56L213.067 66.644C213.043 66.812 212.967 66.984 212.839 67.16C212.719 67.328 212.559 67.484 212.359 67.628C212.159 67.772 211.927 67.892 211.663 67.988C211.407 68.076 211.143 68.12 210.871 68.12C210.303 68.12 209.795 67.98 209.347 67.7C208.899 67.412 208.543 67.024 208.279 66.536C208.015 66.04 207.883 65.472 207.883 64.832C207.883 64.192 208.015 63.628 208.279 63.14C208.543 62.644 208.895 62.256 209.335 61.976C209.783 61.688 210.283 61.544 210.835 61.544ZM211.015 62.648C210.623 62.648 210.279 62.744 209.983 62.936C209.687 63.128 209.455 63.388 209.287 63.716C209.119 64.044 209.035 64.416 209.035 64.832C209.035 65.248 209.119 65.62 209.287 65.948C209.455 66.276 209.687 66.536 209.983 66.728C210.279 66.92 210.623 67.016 211.015 67.016C211.407 67.016 211.751 66.924 212.047 66.74C212.343 66.548 212.575 66.288 212.743 65.96C212.911 65.624 212.995 65.248 212.995 64.832C212.995 64.416 212.911 64.044 212.743 63.716C212.575 63.38 212.343 63.12 212.047 62.936C211.751 62.744 211.407 62.648 211.015 62.648ZM218.981 61.58C219.533 61.58 219.961 61.7 220.265 61.94C220.569 62.172 220.781 62.488 220.901 62.888C221.029 63.288 221.093 63.728 221.093 64.208V67.388C221.093 67.564 221.033 67.712 220.913 67.832C220.801 67.944 220.661 68 220.493 68C220.317 68 220.173 67.944 220.061 67.832C219.949 67.712 219.893 67.564 219.893 67.388V64.208C219.893 63.928 219.853 63.672 219.773 63.44C219.701 63.208 219.569 63.024 219.377 62.888C219.193 62.752 218.933 62.684 218.597 62.684C218.285 62.684 218.005 62.752 217.757 62.888C217.517 63.024 217.329 63.208 217.193 63.44C217.065 63.672 217.001 63.928 217.001 64.208V67.388C217.001 67.564 216.941 67.712 216.821 67.832C216.709 67.944 216.569 68 216.401 68C216.225 68 216.081 67.944 215.969 67.832C215.857 67.712 215.801 67.564 215.801 67.388V59.732C215.801 59.556 215.857 59.412 215.969 59.3C216.081 59.18 216.225 59.12 216.401 59.12C216.569 59.12 216.709 59.18 216.821 59.3C216.941 59.412 217.001 59.556 217.001 59.732V63.008L216.785 63.128C216.841 62.952 216.933 62.772 217.061 62.588C217.197 62.404 217.361 62.236 217.553 62.084C217.753 61.932 217.973 61.812 218.213 61.724C218.453 61.628 218.709 61.58 218.981 61.58ZM225.702 68.12C225.038 68.12 224.462 67.984 223.974 67.712C223.486 67.432 223.106 67.052 222.834 66.572C222.57 66.084 222.438 65.528 222.438 64.904C222.438 64.2 222.578 63.6 222.858 63.104C223.146 62.6 223.518 62.216 223.974 61.952C224.43 61.68 224.914 61.544 225.426 61.544C225.818 61.544 226.19 61.624 226.542 61.784C226.894 61.936 227.206 62.152 227.478 62.432C227.758 62.704 227.978 63.028 228.138 63.404C228.298 63.772 228.382 64.176 228.39 64.616C228.382 64.776 228.318 64.908 228.198 65.012C228.078 65.116 227.938 65.168 227.778 65.168H223.11L222.822 64.148H227.334L227.106 64.364V64.064C227.09 63.784 226.998 63.54 226.83 63.332C226.662 63.116 226.454 62.952 226.206 62.84C225.958 62.72 225.698 62.66 225.426 62.66C225.186 62.66 224.954 62.7 224.73 62.78C224.514 62.852 224.318 62.972 224.142 63.14C223.974 63.308 223.838 63.532 223.734 63.812C223.638 64.084 223.59 64.424 223.59 64.832C223.59 65.272 223.682 65.656 223.866 65.984C224.05 66.312 224.298 66.568 224.61 66.752C224.922 66.928 225.266 67.016 225.642 67.016C225.938 67.016 226.182 66.988 226.374 66.932C226.566 66.868 226.726 66.792 226.854 66.704C226.982 66.616 227.094 66.532 227.19 66.452C227.31 66.38 227.43 66.344 227.55 66.344C227.694 66.344 227.814 66.396 227.91 66.5C228.006 66.596 228.054 66.712 228.054 66.848C228.054 67.024 227.966 67.184 227.79 67.328C227.574 67.536 227.274 67.72 226.89 67.88C226.514 68.04 226.118 68.12 225.702 68.12ZM229.374 67.016C229.302 66.904 229.27 66.776 229.278 66.632C229.286 66.48 229.37 66.352 229.53 66.248C229.642 66.176 229.758 66.148 229.878 66.164C230.006 66.172 230.126 66.232 230.238 66.344C230.462 66.592 230.71 66.788 230.982 66.932C231.262 67.076 231.598 67.148 231.99 67.148C232.15 67.14 232.314 67.116 232.482 67.076C232.65 67.028 232.794 66.948 232.914 66.836C233.034 66.716 233.094 66.544 233.094 66.32C233.094 66.12 233.03 65.96 232.902 65.84C232.774 65.72 232.606 65.624 232.398 65.552C232.19 65.472 231.966 65.4 231.726 65.336C231.47 65.264 231.21 65.184 230.946 65.096C230.69 65.008 230.458 64.896 230.25 64.76C230.042 64.616 229.87 64.432 229.734 64.208C229.606 63.984 229.542 63.708 229.542 63.38C229.542 63.004 229.646 62.68 229.854 62.408C230.07 62.136 230.346 61.924 230.682 61.772C231.026 61.62 231.398 61.544 231.798 61.544C232.03 61.544 232.274 61.576 232.53 61.64C232.786 61.696 233.034 61.788 233.274 61.916C233.514 62.044 233.722 62.212 233.898 62.42C233.978 62.524 234.022 62.648 234.03 62.792C234.046 62.936 233.982 63.064 233.838 63.176C233.742 63.256 233.626 63.292 233.49 63.284C233.354 63.276 233.242 63.232 233.154 63.152C233.002 62.96 232.806 62.812 232.566 62.708C232.326 62.596 232.054 62.54 231.75 62.54C231.598 62.54 231.438 62.564 231.27 62.612C231.11 62.652 230.974 62.728 230.862 62.84C230.75 62.952 230.694 63.116 230.694 63.332C230.694 63.532 230.758 63.692 230.886 63.812C231.022 63.932 231.198 64.032 231.414 64.112C231.63 64.192 231.866 64.264 232.122 64.328C232.37 64.392 232.614 64.468 232.854 64.556C233.102 64.644 233.322 64.76 233.514 64.904C233.714 65.04 233.874 65.22 233.994 65.444C234.122 65.66 234.186 65.936 234.186 66.272C234.186 66.664 234.07 67 233.838 67.28C233.614 67.552 233.326 67.76 232.974 67.904C232.63 68.048 232.266 68.12 231.882 68.12C231.426 68.12 230.97 68.04 230.514 67.88C230.066 67.712 229.686 67.424 229.374 67.016ZM235.393 61.76H238.213C238.373 61.76 238.505 61.816 238.609 61.928C238.721 62.032 238.777 62.164 238.777 62.324C238.777 62.476 238.721 62.604 238.609 62.708C238.505 62.812 238.373 62.864 238.213 62.864H235.393C235.233 62.864 235.097 62.812 234.985 62.708C234.881 62.596 234.829 62.464 234.829 62.312C234.829 62.152 234.881 62.02 234.985 61.916C235.097 61.812 235.233 61.76 235.393 61.76ZM236.653 60.2C236.829 60.2 236.973 60.26 237.085 60.38C237.197 60.492 237.253 60.636 237.253 60.812V66.38C237.253 66.524 237.277 66.64 237.325 66.728C237.373 66.816 237.437 66.876 237.517 66.908C237.605 66.94 237.693 66.956 237.781 66.956C237.869 66.956 237.945 66.94 238.009 66.908C238.081 66.876 238.165 66.86 238.261 66.86C238.357 66.86 238.445 66.904 238.525 66.992C238.605 67.08 238.645 67.2 238.645 67.352C238.645 67.544 238.541 67.7 238.333 67.82C238.125 67.94 237.901 68 237.661 68C237.525 68 237.365 67.988 237.181 67.964C236.997 67.94 236.817 67.88 236.641 67.784C236.473 67.688 236.333 67.536 236.221 67.328C236.109 67.112 236.053 66.812 236.053 66.428V60.812C236.053 60.636 236.109 60.492 236.221 60.38C236.341 60.26 236.485 60.2 236.653 60.2ZM247.261 59.6C247.997 59.6 248.553 59.78 248.929 60.14C249.313 60.5 249.505 61.024 249.505 61.712C249.505 62.072 249.417 62.4 249.241 62.696C249.073 62.984 248.821 63.212 248.485 63.38C248.157 63.548 247.745 63.636 247.249 63.644L247.273 63.2C247.537 63.2 247.821 63.236 248.125 63.308C248.437 63.38 248.729 63.504 249.001 63.68C249.273 63.856 249.497 64.096 249.673 64.4C249.849 64.696 249.937 65.068 249.937 65.516C249.937 66.004 249.857 66.412 249.697 66.74C249.537 67.06 249.325 67.312 249.061 67.496C248.797 67.68 248.505 67.812 248.185 67.892C247.873 67.964 247.565 68 247.261 68H244.189C244.021 68 243.877 67.944 243.757 67.832C243.637 67.712 243.577 67.564 243.577 67.388V60.212C243.577 60.036 243.637 59.892 243.757 59.78C243.877 59.66 244.021 59.6 244.189 59.6H247.261ZM247.093 60.776H244.729L244.873 60.584V63.164L244.741 63.032H247.117C247.405 63.024 247.657 62.928 247.873 62.744C248.097 62.552 248.209 62.272 248.209 61.904C248.209 61.528 248.109 61.248 247.909 61.064C247.709 60.872 247.437 60.776 247.093 60.776ZM247.177 64.208H244.789L244.873 64.124V66.956L244.777 66.848H247.249C247.665 66.848 248.001 66.74 248.257 66.524C248.513 66.3 248.641 65.964 248.641 65.516C248.641 65.14 248.565 64.86 248.413 64.676C248.261 64.492 248.073 64.368 247.849 64.304C247.625 64.24 247.401 64.208 247.177 64.208ZM252.425 67.388C252.425 67.564 252.369 67.712 252.257 67.832C252.145 67.944 252.001 68 251.825 68C251.657 68 251.513 67.944 251.393 67.832C251.281 67.712 251.225 67.564 251.225 67.388V62.252C251.225 62.076 251.281 61.932 251.393 61.82C251.513 61.7 251.657 61.64 251.825 61.64C252.001 61.64 252.145 61.7 252.257 61.82C252.369 61.932 252.425 62.076 252.425 62.252V67.388ZM251.813 60.848C251.581 60.848 251.413 60.808 251.309 60.728C251.205 60.64 251.153 60.496 251.153 60.296V60.104C251.153 59.904 251.209 59.764 251.321 59.684C251.433 59.604 251.601 59.564 251.825 59.564C252.065 59.564 252.237 59.608 252.341 59.696C252.445 59.776 252.497 59.912 252.497 60.104V60.296C252.497 60.504 252.441 60.648 252.329 60.728C252.225 60.808 252.053 60.848 251.813 60.848ZM259.211 59.12C259.387 59.12 259.531 59.176 259.643 59.288C259.755 59.4 259.811 59.548 259.811 59.732V67.388C259.811 67.564 259.755 67.712 259.643 67.832C259.531 67.944 259.387 68 259.211 68C259.043 68 258.899 67.944 258.779 67.832C258.667 67.712 258.611 67.564 258.611 67.388V66.524L258.863 66.536C258.863 66.68 258.803 66.844 258.683 67.028C258.571 67.204 258.415 67.376 258.215 67.544C258.015 67.712 257.779 67.852 257.507 67.964C257.235 68.068 256.943 68.12 256.631 68.12C256.079 68.12 255.583 67.98 255.143 67.7C254.703 67.412 254.355 67.024 254.099 66.536C253.843 66.04 253.715 65.472 253.715 64.832C253.715 64.192 253.843 63.628 254.099 63.14C254.355 62.644 254.699 62.256 255.131 61.976C255.571 61.688 256.059 61.544 256.595 61.544C256.931 61.544 257.243 61.6 257.531 61.712C257.827 61.824 258.083 61.968 258.299 62.144C258.515 62.32 258.683 62.508 258.803 62.708C258.923 62.9 258.983 63.084 258.983 63.26L258.611 63.296V59.732C258.611 59.556 258.667 59.412 258.779 59.3C258.899 59.18 259.043 59.12 259.211 59.12ZM256.763 67.016C257.147 67.016 257.479 66.92 257.759 66.728C258.047 66.536 258.271 66.276 258.431 65.948C258.591 65.62 258.671 65.248 258.671 64.832C258.671 64.416 258.591 64.044 258.431 63.716C258.271 63.388 258.047 63.128 257.759 62.936C257.471 62.744 257.139 62.648 256.763 62.648C256.395 62.648 256.067 62.744 255.779 62.936C255.499 63.128 255.275 63.388 255.107 63.716C254.947 64.044 254.867 64.416 254.867 64.832C254.867 65.248 254.947 65.62 255.107 65.948C255.275 66.276 255.499 66.536 255.779 66.728C256.067 66.92 256.395 67.016 256.763 67.016Z" fill="white"/>
<defs>
<filter id="filter0_b_4601_394" x="-12" y="-12" width="331" height="119" filterUnits="userSpaceOnUse" color-interpolation-filters="sRGB">
<feFlood flood-opacity="0" result="BackgroundImageFix"/>
<feGaussianBlur in="BackgroundImageFix" stdDeviation="6"/>
<feComposite in2="SourceAlpha" operator="in" result="effect1_backgroundBlur_4601_394"/>
<feBlend mode="normal" in="SourceGraphic" in2="effect1_backgroundBlur_4601_394" result="shape"/>
</filter>
</defs>
</svg>
