<svg width="48" height="48" viewBox="0 0 48 48" fill="none" xmlns="http://www.w3.org/2000/svg">
<rect width="48" height="48" fill="#EDEFF2"/>
<path d="M23.9998 14.25C22.3065 14.2499 20.6423 14.6907 19.1712 15.5292C17.7 16.3677 16.4726 17.5748 15.6098 19.0318C14.7469 20.4888 14.2784 22.1454 14.2504 23.8385C14.2223 25.5315 14.6357 27.2027 15.4498 28.6875L14.6529 31.5C14.5786 31.7563 14.5744 32.0278 14.6408 32.2863C14.7072 32.5447 14.8418 32.7806 15.0305 32.9693C15.2192 33.158 15.455 33.2926 15.7135 33.359C15.9719 33.4254 16.2435 33.4212 16.4998 33.3469L19.3123 32.55C20.6157 33.2644 22.0651 33.6713 23.5499 33.7397C25.0346 33.8081 26.5154 33.5361 27.8789 32.9445C29.2424 32.353 30.4527 31.4575 31.4171 30.3266C32.3816 29.1956 33.0747 27.8592 33.4435 26.4193C33.8123 24.9795 33.847 23.4744 33.5451 22.0191C33.2431 20.5637 32.6124 19.1967 31.7011 18.0225C30.7899 16.8483 29.6223 15.8979 28.2875 15.2441C26.9527 14.5902 25.4861 14.2502 23.9998 14.25ZM23.9998 32.25C22.5188 32.2486 21.0653 31.8504 19.7904 31.0969C19.6727 31.0313 19.5407 30.9959 19.406 30.9938C19.3363 30.9938 19.2669 31.0033 19.1998 31.0219L16.0873 31.9125L16.9779 28.8C17.0053 28.7015 17.0128 28.5985 16.9999 28.4971C16.987 28.3957 16.954 28.2979 16.9029 28.2094C15.9742 26.6439 15.5892 24.8152 15.808 23.0082C16.0269 21.2012 16.8372 19.5173 18.1127 18.2187C19.3882 16.9202 21.0574 16.0799 22.8603 15.8289C24.6631 15.5778 26.4983 15.93 28.0801 16.8306C29.662 17.7312 30.9015 19.1297 31.6057 20.8081C32.31 22.4866 32.4393 24.3509 31.9737 26.1105C31.508 27.8702 30.4735 29.4264 29.0313 30.5369C27.589 31.6474 25.82 32.2497 23.9998 32.25ZM25.1248 24C25.1248 24.2225 25.0588 24.44 24.9352 24.625C24.8116 24.81 24.6359 24.9542 24.4303 25.0394C24.2247 25.1245 23.9985 25.1468 23.7803 25.1034C23.5621 25.06 23.3616 24.9528 23.2043 24.7955C23.0469 24.6382 22.9398 24.4377 22.8964 24.2195C22.853 24.0012 22.8753 23.775 22.9604 23.5695C23.0455 23.3639 23.1897 23.1882 23.3748 23.0646C23.5598 22.941 23.7773 22.875 23.9998 22.875C24.2981 22.875 24.5843 22.9935 24.7953 23.2045C25.0062 23.4155 25.1248 23.7016 25.1248 24ZM20.6248 24C20.6248 24.2225 20.5588 24.44 20.4352 24.625C20.3116 24.81 20.1359 24.9542 19.9303 25.0394C19.7247 25.1245 19.4985 25.1468 19.2803 25.1034C19.0621 25.06 18.8616 24.9528 18.7043 24.7955C18.5469 24.6382 18.4398 24.4377 18.3964 24.2195C18.353 24.0012 18.3753 23.775 18.4604 23.5695C18.5455 23.3639 18.6897 23.1882 18.8747 23.0646C19.0598 22.941 19.2773 22.875 19.4998 22.875C19.7981 22.875 20.0843 22.9935 20.2953 23.2045C20.5062 23.4155 20.6248 23.7016 20.6248 24ZM29.6248 24C29.6248 24.2225 29.5588 24.44 29.4352 24.625C29.3116 24.81 29.1359 24.9542 28.9303 25.0394C28.7247 25.1245 28.4985 25.1468 28.2803 25.1034C28.0621 25.06 27.8616 24.9528 27.7043 24.7955C27.5469 24.6382 27.4398 24.4377 27.3964 24.2195C27.353 24.0012 27.3753 23.775 27.4604 23.5695C27.5456 23.3639 27.6897 23.1882 27.8748 23.0646C28.0598 22.941 28.2773 22.875 28.4998 22.875C28.7981 22.875 29.0843 22.9935 29.2953 23.2045C29.5062 23.4155 29.6248 23.7016 29.6248 24Z" fill="#363A45"/>
</svg>
