<svg width="48" height="48" viewBox="0 0 48 48" fill="none" xmlns="http://www.w3.org/2000/svg">
<rect width="48" height="48" fill="#EDEFF2"/>
<path d="M32.7002 28.4906C32.147 27.5344 31.4814 25.7156 31.4814 22.5V21.8344C31.4814 17.6813 28.1533 14.2781 24.0564 14.25H24.0002C23.0165 14.2512 22.0427 14.4462 21.1343 14.8238C20.226 15.2014 19.4009 15.7541 18.7062 16.4506C18.0115 17.147 17.4608 17.9735 17.0855 18.8827C16.7102 19.792 16.5177 20.7663 16.5189 21.75V22.5C16.5189 25.7156 15.8533 27.5344 15.3002 28.4906C15.1664 28.7185 15.0952 28.9777 15.0938 29.2419C15.0923 29.5061 15.1607 29.7661 15.2921 29.9954C15.4234 30.2247 15.6129 30.4152 15.8415 30.5477C16.0701 30.6803 16.3297 30.75 16.5939 30.75H20.2502C20.2502 31.7446 20.6453 32.6984 21.3485 33.4016C22.0518 34.1049 23.0056 34.5 24.0002 34.5C24.9947 34.5 25.9486 34.1049 26.6518 33.4016C27.3551 32.6984 27.7502 31.7446 27.7502 30.75H31.4064C31.6706 30.7517 31.9305 30.6831 32.1595 30.5513C32.3885 30.4196 32.5783 30.2293 32.7095 30C32.8397 29.7694 32.9073 29.5088 32.9056 29.2441C32.904 28.9793 32.8332 28.7196 32.7002 28.4906ZM24.0002 33C23.4042 32.9975 22.8333 32.7597 22.4119 32.3383C21.9905 31.9168 21.7526 31.346 21.7502 30.75H26.2502C26.2477 31.346 26.0099 31.9168 25.5884 32.3383C25.167 32.7597 24.5961 32.9975 24.0002 33ZM16.5939 29.25C17.2408 28.125 18.0189 26.0531 18.0189 22.5V21.75C18.0165 20.963 18.1693 20.1832 18.4688 19.4553C18.7683 18.7275 19.2085 18.0659 19.7641 17.5085C20.3198 16.9511 20.98 16.5088 21.7069 16.2071C22.4338 15.9053 23.2131 15.75 24.0002 15.75H24.047C27.3189 15.7687 29.9814 18.5063 29.9814 21.8344V22.5C29.9814 26.0531 30.7595 28.125 31.4064 29.25H16.5939Z" fill="#363A45"/>
</svg>
