<svg width="24" height="24" viewBox="0 0 24 24" fill="none" xmlns="http://www.w3.org/2000/svg">
<path d="M12.0002 17.25C11.8014 17.2473 11.6108 17.1704 11.4658 17.0344L3.96584 9.53438C3.84624 9.38865 3.78512 9.20366 3.79437 9.01537C3.80362 8.82708 3.88257 8.64896 4.01587 8.51566C4.14917 8.38236 4.32729 8.30341 4.51558 8.29416C4.70387 8.28491 4.88887 8.34603 5.03459 8.46563L12.0002 15.4406L18.9658 8.46563C19.1116 8.34603 19.2966 8.28491 19.4848 8.29416C19.6731 8.30341 19.8513 8.38236 19.9846 8.51566C20.1179 8.64896 20.1968 8.82708 20.2061 9.01537C20.2153 9.20366 20.1542 9.38865 20.0346 9.53438L12.5346 17.0344C12.3896 17.1704 12.199 17.2473 12.0002 17.25Z" fill="#484F5B"/>
</svg>
