<svg width="32" height="32" viewBox="0 0 32 32" fill="none" xmlns="http://www.w3.org/2000/svg">
<path d="M17 10V15.425L21.7 18.1375C21.8889 18.2483 22.0362 18.4181 22.1192 18.6208C22.2023 18.8234 22.2165 19.0478 22.1597 19.2593C22.1029 19.4708 21.9783 19.6579 21.8049 19.7917C21.6315 19.9255 21.419 19.9987 21.2 20C21.0233 20.005 20.8492 19.9571 20.7 19.8625L15.5 16.8625H15.475L15.425 16.825L15.3875 16.8L15.35 16.775L15.3125 16.7375L15.2875 16.7125C15.2625 16.7 15.25 16.675 15.2375 16.6625L15.2125 16.6375L15.1875 16.5875L15.1625 16.55L15.1375 16.5125C15.1297 16.5067 15.1234 16.4991 15.1191 16.4905C15.1147 16.4818 15.1125 16.4722 15.1125 16.4625L15.0875 16.425C15.0875 16.4125 15.075 16.4 15.075 16.375C15.0704 16.3699 15.067 16.364 15.0648 16.3575C15.0627 16.3511 15.0619 16.3443 15.0625 16.3375L15.0375 16.2875C15.038 16.2807 15.0372 16.2739 15.0351 16.2675C15.0329 16.261 15.0295 16.2551 15.025 16.25C15.025 16.225 15.025 16.2125 15.0125 16.2V16.15C15.0125 16.125 15 16.1125 15 16.1V10C15 9.73479 15.1053 9.48044 15.2928 9.2929C15.4804 9.10536 15.7347 9.00001 16 9.00001C16.2652 9.00001 16.5195 9.10536 16.7071 9.2929C16.8946 9.48044 17 9.73479 17 10ZM28.85 13.025C28.8624 13 28.875 12.9875 28.875 12.975L28.9 12.9375C28.9124 12.925 28.9124 12.9 28.9249 12.8875L28.95 12.85C28.9481 12.8324 28.9525 12.8147 28.9625 12.8C28.9625 12.7875 28.975 12.775 28.975 12.75C28.9795 12.7449 28.9829 12.739 28.9851 12.7325C28.9872 12.7261 28.988 12.7193 28.9874 12.7125C28.9874 12.6875 29 12.675 29 12.6625C29 12.65 29.0125 12.625 29.0125 12.6125V12.5625C29.0227 12.5302 29.027 12.4963 29.025 12.4625V7.46251C29.025 7.19729 28.9196 6.94293 28.7321 6.7554C28.5445 6.56786 28.2902 6.46251 28.025 6.46251C27.7597 6.46251 27.5054 6.56786 27.3178 6.7554C27.1303 6.94293 27.025 7.19729 27.025 7.46251V10.05L24.4874 7.51251C22.809 5.8349 20.6708 4.69264 18.3432 4.23012C16.0156 3.76761 13.6031 4.00562 11.4107 4.91405C9.2184 5.82249 7.34462 7.36056 6.02632 9.33382C4.70802 11.3071 4.00439 13.6269 4.00439 16C4.00439 18.3731 4.70802 20.6929 6.02632 22.6662C7.34462 24.6395 9.2184 26.1775 11.4107 27.086C13.6031 27.9944 16.0156 28.2324 18.3432 27.7699C20.6708 27.3074 22.809 26.1651 24.4874 24.4875C24.6745 24.3 24.7795 24.0461 24.7795 23.7813C24.7795 23.5165 24.6745 23.2625 24.4874 23.075C24.3955 22.9809 24.2856 22.9061 24.1643 22.8551C24.0431 22.804 23.9128 22.7777 23.7812 22.7777C23.6496 22.7777 23.5193 22.804 23.3981 22.8551C23.2768 22.9061 23.1669 22.9809 23.075 23.075C21.676 24.4724 19.8941 25.4237 17.9546 25.8087C16.0151 26.1936 14.005 25.9949 12.1784 25.2377C10.3518 24.4805 8.79068 23.1988 7.69235 21.5546C6.59403 19.9103 6.00782 17.9773 6.00782 16C6.00782 14.0227 6.59403 12.0897 7.69235 10.4455C8.79068 8.80121 10.3518 7.51948 12.1784 6.76227C14.005 6.00507 16.0151 5.80639 17.9546 6.19134C19.8941 6.57629 21.676 7.52759 23.075 8.92501L25.6124 11.4625H23.025C22.7597 11.4625 22.5054 11.5679 22.3178 11.7554C22.1303 11.9429 22.025 12.1973 22.025 12.4625C22.025 12.7277 22.1303 12.9821 22.3178 13.1696C22.5054 13.3572 22.7597 13.4625 23.025 13.4625H28.3125L28.3624 13.4375H28.4L28.45 13.4125H28.4874L28.5375 13.3875L28.575 13.3625L28.625 13.325L28.65 13.3L28.7999 13.1625L28.825 13.125L28.85 13.025Z" fill="#6C7293"/>
</svg>
