<svg width="32" height="32" viewBox="0 0 32 32" fill="none" xmlns="http://www.w3.org/2000/svg">
<path d="M16.0127 3C13.4415 3 10.9281 3.76244 8.79029 5.1909C6.65245 6.61935 4.98621 8.64968 4.00227 11.0251C3.01833 13.4006 2.76088 16.0144 3.26249 18.5362C3.7641 21.0579 5.00223 23.3743 6.82031 25.1924C8.63839 27.0105 10.9548 28.2486 13.4765 28.7502C15.9983 29.2518 18.6121 28.9944 20.9876 28.0104C23.363 27.0265 25.3933 25.3603 26.8218 23.2224C28.2503 21.0846 29.0127 18.5712 29.0127 16C29.0061 12.5542 27.6343 9.25145 25.1978 6.81491C22.7612 4.37837 19.4585 3.00661 16.0127 3ZM16.0127 27C13.8371 27 11.7104 26.3549 9.90143 25.1462C8.09249 23.9375 6.68259 22.2195 5.85003 20.2095C5.01746 18.1995 4.79962 15.9878 5.22406 13.854C5.6485 11.7202 6.69615 9.7602 8.23453 8.22183C9.7729 6.68345 11.7329 5.6358 13.8667 5.21136C16.0005 4.78692 18.2122 5.00476 20.2222 5.83733C22.2322 6.66989 23.9502 8.07979 25.1589 9.88873C26.3676 11.6977 27.0127 13.8244 27.0127 16C27.0094 18.9164 25.8494 21.7123 23.7872 23.7745C21.725 25.8367 18.9291 26.9967 16.0127 27ZM21.2377 9.4375L13.4752 12.9625C13.2501 13.0707 13.0723 13.2574 12.9752 13.4875L9.7877 20.9125C9.70925 21.0961 9.68757 21.299 9.72544 21.4951C9.76332 21.6911 9.85901 21.8713 10.0002 22.0125C10.1922 22.196 10.4472 22.2989 10.7127 22.3C10.8454 22.2994 10.9769 22.274 11.1002 22.225L18.5252 19.0375C18.7553 18.9404 18.942 18.7626 19.0502 18.5375L22.5627 10.7625C22.6403 10.5772 22.661 10.3729 22.6222 10.1758C22.5834 9.97868 22.4868 9.79755 22.3447 9.65548C22.2026 9.51341 22.0215 9.41682 21.8244 9.378C21.6272 9.33918 21.423 9.3599 21.2377 9.4375ZM17.3877 17.35L12.6127 19.4L14.6627 14.625L19.6377 12.3625L17.3877 17.35Z" fill="#6C7293"/>
</svg>
