<svg width="32" height="32" viewBox="0 0 32 32" fill="none" xmlns="http://www.w3.org/2000/svg">
<path d="M29.8749 25.775L28.0874 9.77501C28.0348 9.28554 27.8024 8.83302 27.4352 8.5051C27.068 8.17717 26.5922 7.99719 26.0999 8.00001H21.9124C21.6718 6.60637 20.9466 5.34253 19.8648 4.43154C18.783 3.52054 17.4142 3.02097 15.9999 3.02097C14.5857 3.02097 13.2169 3.52054 12.1351 4.43154C11.0533 5.34253 10.3281 6.60637 10.0874 8.00001H5.89994C5.40765 7.99719 4.93184 8.17717 4.56466 8.5051C4.19748 8.83302 3.96507 9.28554 3.91244 9.77501L2.12494 25.775C2.09467 26.0559 2.12351 26.3401 2.20962 26.6092C2.29573 26.8783 2.43721 27.1264 2.62494 27.3375C2.81205 27.5467 3.04134 27.7139 3.29773 27.8281C3.55411 27.9423 3.83178 28.0009 4.11244 28H27.8874C28.1681 28.0009 28.4458 27.9423 28.7022 27.8281C28.9585 27.7139 29.1878 27.5467 29.3749 27.3375C29.5627 27.1264 29.7041 26.8783 29.7903 26.6092C29.8764 26.3401 29.9052 26.0559 29.8749 25.775ZM15.9999 5.00001C16.8865 5.0017 17.7476 5.29698 18.4486 5.83973C19.1497 6.38247 19.6512 7.14212 19.8749 8.00001H12.1249C12.3487 7.14212 12.8502 6.38247 13.5513 5.83973C14.2523 5.29698 15.1134 5.0017 15.9999 5.00001ZM4.11244 26L5.89994 10H9.99994V13C9.99994 13.2652 10.1053 13.5196 10.2928 13.7071C10.4804 13.8947 10.7347 14 10.9999 14C11.2652 14 11.5195 13.8947 11.707 13.7071C11.8946 13.5196 11.9999 13.2652 11.9999 13V10H19.9999V13C19.9999 13.2652 20.1053 13.5196 20.2928 13.7071C20.4804 13.8947 20.7347 14 20.9999 14C21.2652 14 21.5195 13.8947 21.707 13.7071C21.8946 13.5196 21.9999 13.2652 21.9999 13V10H26.0999L27.8874 26H4.11244Z" fill="#6C7293"/>
</svg>
