<svg width="24" height="24" viewBox="0 0 24 24" fill="none" xmlns="http://www.w3.org/2000/svg">
<path d="M17.2502 12C17.2475 12.1988 17.1706 12.3894 17.0346 12.5344L9.53459 20.0344C9.38887 20.154 9.20387 20.2151 9.01558 20.2058C8.82729 20.1966 8.64917 20.1176 8.51587 19.9843C8.38257 19.851 8.30362 19.6729 8.29437 19.4846C8.28512 19.2963 8.34624 19.1113 8.46584 18.9656L15.4408 12L8.46584 5.03437C8.34624 4.88865 8.28512 4.70365 8.29437 4.51536C8.30362 4.32708 8.38257 4.14896 8.51587 4.01566C8.64917 3.88235 8.82729 3.8034 9.01558 3.79415C9.20387 3.78491 9.38887 3.84603 9.53459 3.96562L17.0346 11.4656C17.1706 11.6106 17.2475 11.8012 17.2502 12Z" fill="#484F5B"/>
</svg>
